<svg version="1.1" id="Layer_1" xmlns="http://www.w3.org/2000/svg" xmlns:xlink="http://www.w3.org/1999/xlink" x="0px" y="0px"
	 width="100%" viewBox="0 0 300 300" enable-background="new 0 0 300 300" xml:space="preserve">
<path fill="#000000" opacity="1.000000" stroke="none" 
	d="
M174.000000,301.000000 
	C116.000008,301.000000 58.500019,301.000000 1.000015,301.000000 
	C1.000000,202.333359 1.022792,103.666695 0.904436,5.000198 
	C0.900329,1.576274 1.575734,0.900207 5.000031,0.904383 
	C102.333199,1.023108 199.666565,1.023097 296.999725,0.904415 
	C300.423523,0.900241 301.099823,1.575553 301.095642,4.999978 
	C300.976929,102.333153 300.976898,199.666534 301.095581,296.999695 
	C301.099731,300.423431 300.426178,301.111206 296.999817,301.098419 
	C256.166992,300.945862 215.333389,301.000000 174.000000,301.000000 
z"/>
<path fill="#C3002F" opacity="1.000000" stroke="none" 
	d="
M151.598083,9.970854 
	C161.352188,13.119683 170.652496,16.191935 179.891144,19.439692 
	C212.604660,30.939827 245.298538,42.495819 277.996185,54.041046 
	C284.069061,56.185329 284.692841,58.175400 282.943604,67.915359 
	C281.026642,78.588928 280.182526,89.399719 278.966705,100.165154 
	C277.530914,112.878281 275.616241,125.536766 274.116608,138.243423 
	C272.921753,148.367508 272.165619,158.543198 270.984406,168.669098 
	C269.501770,181.378876 267.725555,194.054153 266.190948,206.758194 
	C265.342865,213.778702 264.602325,220.818222 264.084534,227.869080 
	C263.918274,230.132874 263.242981,231.361664 261.199219,232.468994 
	C239.700546,244.117065 218.247452,255.849899 196.826599,267.640747 
	C181.739639,275.945160 166.721725,284.375031 151.328461,292.793884 
	C149.540115,290.918945 148.787308,288.799988 148.783707,286.355621 
	C148.735626,253.719849 148.627228,221.084137 148.855057,188.448593 
	C148.860870,187.615921 148.995041,186.790222 149.323410,185.565216 
	C150.494247,182.519699 152.716095,181.980469 155.156281,181.936691 
	C163.982422,181.778381 172.809021,181.835480 181.636032,181.908035 
	C185.928513,181.943329 188.284302,184.386276 189.859085,188.034821 
	C193.815796,197.201920 197.423721,206.509903 201.122543,215.780991 
	C203.925186,222.805832 203.897156,222.822433 211.688873,222.842987 
	C215.852676,222.853958 220.017532,222.905258 224.180115,222.826065 
	C229.107834,222.732315 229.727371,221.901749 227.737442,217.622360 
	C219.879837,200.724350 212.445618,183.636368 204.845123,166.624023 
	C191.408554,136.548645 177.826965,106.537994 164.540100,76.395432 
	C159.444565,64.835670 153.955505,53.449387 149.147308,41.285324 
	C148.511597,32.466042 148.776794,24.061855 148.827820,15.659666 
	C148.841064,13.476805 149.040115,11.340601 151.598083,9.970854 
z"/>
<path fill="#DD0031" opacity="1.000000" stroke="none" 
	d="
M150.838425,183.812775 
	C150.999054,220.086395 150.995819,256.004639 150.988251,292.380920 
	C136.623276,285.017670 122.248482,277.222229 107.906395,269.367065 
	C96.140244,262.922760 84.415581,256.402771 72.667740,249.924988 
	C61.908348,243.992218 51.152901,238.052170 40.374683,232.153778 
	C35.826298,229.664658 37.669910,224.927109 37.260479,221.512695 
	C35.228931,204.570770 33.269390,187.619675 31.116192,170.688019 
	C29.479216,157.815659 28.457277,144.866287 26.968164,131.973526 
	C25.463249,118.943962 23.643101,105.950981 22.106539,92.924820 
	C20.951654,83.134308 20.028997,73.316429 18.996840,63.511375 
	C18.876335,62.366623 18.991894,61.095608 18.523737,60.107933 
	C17.133657,57.175278 18.528017,55.931488 21.087839,55.040184 
	C39.732010,48.548443 58.388149,42.089825 76.994392,35.490723 
	C101.437660,26.821390 125.837753,18.030365 150.265411,9.316873 
	C150.684616,9.167336 151.217117,9.335448 151.888458,9.661137 
	C150.398636,11.971140 151.046463,14.377298 151.027206,16.623360 
	C150.957993,24.694727 151.002533,32.767071 151.001953,41.291668 
	C151.314240,44.998573 150.364700,47.951439 149.035278,50.879864 
	C134.332092,83.268120 119.842438,115.752312 105.299072,148.212509 
	C94.968971,171.268875 84.479088,194.254028 74.282242,217.370193 
	C72.084404,222.352661 72.375938,222.750366 77.703842,222.828217 
	C82.528496,222.898712 87.362617,222.678391 92.177979,222.891449 
	C96.290512,223.073395 98.539879,221.399567 100.018539,217.556168 
	C103.717567,207.941498 107.654594,198.415421 111.436699,188.832031 
	C113.339882,184.009613 116.420967,181.736420 121.638687,181.827469 
	C129.456253,181.963913 137.279388,181.812241 145.099808,181.886673 
	C147.081528,181.905533 149.144745,181.772919 150.838425,183.812775 
z"/>
<path fill="#FFFDFD" opacity="1.000000" stroke="none" 
	d="
M151.465790,184.095154 
	C140.347214,184.113297 129.690598,184.142242 119.038185,183.943985 
	C116.413048,183.895126 115.290146,184.869980 114.370705,187.233475 
	C109.915825,198.685135 105.190941,210.031769 100.737801,221.484085 
	C99.691154,224.175812 98.406960,225.362015 95.324768,225.256149 
	C87.839050,224.999008 80.330894,224.969406 72.846962,225.251282 
	C68.591820,225.411575 68.676582,224.067490 70.148888,220.805359 
	C87.912216,181.448044 105.571350,142.043716 123.269875,102.657127 
	C132.322861,82.510452 141.400421,62.374813 150.733368,41.989243 
	C160.098145,61.857712 169.244293,81.949654 178.284546,102.089134 
	C195.905106,141.343491 213.466934,180.624222 231.050125,219.895355 
	C231.717300,221.385437 232.353622,222.889297 233.337219,225.152893 
	C223.204224,225.152893 213.649582,225.150558 204.094940,225.154526 
	C201.745804,225.155502 201.731491,223.059128 201.165497,221.674515 
	C196.577194,210.450119 192.006378,199.216644 187.635971,187.906433 
	C186.532120,185.049713 185.190216,183.826752 181.917526,183.911591 
	C171.927200,184.170578 161.926163,184.015884 151.465790,184.095154 
z"/>
<path fill="#C50735" opacity="1.000000" stroke="none" 
	d="
M150.375427,103.483826 
	C151.506607,101.445297 151.737091,102.805336 152.081787,103.623604 
	C159.394943,120.984680 166.676376,138.359177 174.030884,155.702698 
	C174.974258,157.927399 174.462753,158.585526 172.100204,158.547134 
	C165.306885,158.436707 158.511169,158.474930 151.327667,158.319214 
	C149.199570,156.585815 148.820892,154.513779 148.803818,152.276917 
	C148.705948,139.452789 148.695786,126.628792 148.810638,113.804855 
	C148.840744,110.443504 149.864197,107.240463 150.375427,103.483826 
z"/>
<path fill="#DD0333" opacity="1.000000" stroke="none" 
	d="
M150.116394,103.323929 
	C151.170822,104.530830 150.995377,106.217720 150.995041,107.869797 
	C150.991821,124.320892 150.977631,140.771988 150.952744,157.703400 
	C143.153305,158.183701 135.367661,158.183701 126.947495,158.183701 
	C134.672379,139.856995 142.303497,121.752731 150.116394,103.323929 
z"/>
</svg>