<svg version="1.1" id="Layer_1" xmlns="http://www.w3.org/2000/svg" xmlns:xlink="http://www.w3.org/1999/xlink" x="0px" y="0px"
	 width="100%" viewBox="0 0 300 300" enable-background="new 0 0 300 300" xml:space="preserve">
<path fill="#000000" opacity="1.000000" stroke="none" 
	d="
M174.000000,301.000000 
	C116.000008,301.000000 58.500019,301.000000 1.000015,301.000000 
	C1.000000,202.333359 1.022792,103.666695 0.904436,5.000198 
	C0.900329,1.576274 1.575734,0.900207 5.000031,0.904383 
	C102.333199,1.023108 199.666565,1.023097 296.999725,0.904415 
	C300.423523,0.900241 301.099823,1.575553 301.095642,4.999978 
	C300.976929,102.333153 300.976898,199.666534 301.095581,296.999695 
	C301.099731,300.423431 300.426178,301.111206 296.999817,301.098419 
	C256.166992,300.945862 215.333389,301.000000 174.000000,301.000000 
z"/>
<path fill="#8CC84B" opacity="1.000000" stroke="none" 
	d="
M207.293274,263.295135 
	C194.171722,270.994873 181.239197,278.289062 168.578476,286.027893 
	C160.051880,291.239777 151.210129,295.028046 141.562225,290.604919 
	C134.200317,287.229858 127.545090,282.312134 120.579857,278.073486 
	C115.425095,274.936554 110.290688,271.765991 105.121063,268.653870 
	C102.333908,266.975983 102.017746,265.455078 105.232552,263.955048 
	C109.813751,261.817413 114.407845,259.706055 118.960114,257.508240 
	C122.389610,255.852478 125.093620,257.882690 127.691994,259.383240 
	C134.749710,263.458923 141.680450,267.760101 148.572174,272.113342 
	C150.193604,273.137512 151.530685,273.296875 153.124802,272.352570 
	C172.765533,260.717865 192.331070,248.953140 212.084549,237.512924 
	C225.774261,229.584518 239.538284,221.791199 253.075851,213.598358 
	C255.502106,212.129990 256.045502,210.606430 256.041565,208.076096 
	C255.982529,170.080963 255.967010,132.085617 256.061066,94.090622 
	C256.069092,90.852142 254.932388,89.122620 252.126160,87.492783 
	C229.281403,74.224625 206.564285,60.736992 183.772217,47.377735 
	C173.641983,41.440033 163.381256,35.723846 153.287918,29.725157 
	C150.903748,28.308186 149.121979,29.292707 147.343124,30.330975 
	C120.162010,46.195827 93.013680,62.116856 65.863480,78.034622 
	C60.232319,81.336098 54.654705,84.730141 48.990097,87.972664 
	C46.916828,89.159439 45.954475,90.625336 45.958328,93.109726 
	C46.018311,131.771439 46.001934,170.433289 45.994801,209.095093 
	C45.994553,210.440353 45.851185,211.902756 47.235577,212.643356 
	C58.428905,218.631210 68.567917,226.494583 80.506714,231.167297 
	C89.824959,234.814346 99.442780,227.585922 99.268578,217.841644 
	C98.604439,180.691513 99.019516,143.522415 98.986435,106.360451 
	C98.978706,97.674698 100.991714,97.853210 107.464577,97.923553 
	C119.791695,98.057503 119.030037,97.279190 119.015289,109.645409 
	C118.970589,147.140640 119.077286,184.636276 118.934143,222.131012 
	C118.904991,229.768143 117.144035,237.197647 111.553528,242.869385 
	C101.876320,252.687195 89.887283,253.848160 77.331161,250.583115 
	C65.989502,247.633881 56.454151,240.747406 46.458336,234.945053 
	C41.287788,231.943634 35.848976,229.410263 31.911381,224.534439 
	C28.648645,220.494278 27.049307,215.998734 27.040470,211.003174 
	C26.969717,171.008331 26.924774,131.013016 27.065311,91.018539 
	C27.093290,83.056175 30.449766,76.417610 37.501526,72.204193 
	C52.199139,63.422394 66.941193,54.713921 81.719437,46.068390 
	C99.731750,35.530872 118.031235,25.461987 135.760910,14.471572 
	C147.128571,7.424906 157.257919,8.838140 168.002853,15.407519 
	C183.164841,24.677465 198.631882,33.447788 213.947006,42.468193 
	C227.855286,50.659977 241.726044,58.915428 255.632050,67.111084 
	C260.140106,69.767960 264.764160,72.112877 268.580170,75.927856 
	C273.089935,80.436363 274.986816,85.708122 274.989777,91.848389 
	C275.008362,130.510193 274.814545,169.173447 275.113800,207.832932 
	C275.201416,219.152451 270.236633,226.633850 260.854797,232.052124 
	C243.063644,242.327011 225.346130,252.729431 207.293274,263.295135 
z"/>
<path fill="#8CC84B" opacity="1.000000" stroke="none" 
	d="
M173.246628,190.999481 
	C183.085129,190.725327 192.576233,192.077942 201.726318,188.965256 
	C210.306717,186.046356 214.454849,178.901932 212.067566,171.785934 
	C210.474136,167.036240 206.094711,166.259995 202.442993,165.156586 
	C191.767761,161.930984 180.566467,161.527313 169.602295,159.830261 
	C158.427414,158.100601 147.087494,156.516678 138.171417,147.870819 
	C129.574158,139.534149 130.328766,117.150002 138.169830,109.170280 
	C146.019928,101.181374 155.218231,97.125397 166.262787,95.868050 
	C179.830399,94.323479 193.122620,94.358200 206.133804,98.967056 
	C219.788467,103.803833 227.550690,113.331314 229.005859,127.840240 
	C229.723663,134.997192 229.672150,134.491714 222.601990,135.134613 
	C214.788696,135.845078 209.493011,134.589401 207.101486,125.785713 
	C204.569977,116.466805 195.470764,115.246597 187.752808,114.295967 
	C179.333847,113.259003 170.582031,113.111015 162.281067,116.053886 
	C158.026352,117.562263 153.937683,119.555626 153.054123,124.629150 
	C151.823837,131.693558 153.908096,135.144806 160.925858,136.877060 
	C170.750839,139.302231 180.815781,140.482056 190.803619,142.074203 
	C202.479324,143.935410 214.425705,145.055176 224.382172,152.683716 
	C231.182266,157.893875 235.279556,169.931839 233.815323,178.616592 
	C230.416214,198.777710 216.094543,206.328613 198.133270,208.935425 
	C182.878433,211.149414 167.608536,211.159485 152.797501,206.001831 
	C135.995529,200.150909 129.132324,189.029938 127.998634,173.699142 
	C127.706375,169.746948 129.372574,167.712494 133.478256,167.994904 
	C133.975586,168.029114 134.477310,167.999939 134.977005,167.998642 
	C146.331299,167.969086 146.331299,167.969055 150.018478,178.650162 
	C152.478638,185.776840 158.756790,187.916458 165.023041,189.872330 
	C167.484085,190.640503 170.183060,190.646378 173.246628,190.999481 
z"/>
</svg>