<svg version="1.1" id="Layer_1" xmlns="http://www.w3.org/2000/svg" xmlns:xlink="http://www.w3.org/1999/xlink" x="0px" y="0px"
	 width="100%" viewBox="0 0 308 300" enable-background="new 0 0 308 300" xml:space="preserve">
<path fill="#000000" opacity="1.000000" stroke="none" 
	d="
M176.000000,301.000000 
	C117.333344,301.000000 59.166687,301.000000 1.000023,301.000000 
	C1.000016,201.000031 1.000016,101.000053 1.000008,1.000064 
	C103.666618,1.000042 206.333237,1.000042 308.999878,1.000021 
	C308.999939,100.999939 308.999939,200.999878 308.999969,300.999908 
	C264.833344,301.000000 220.666672,301.000000 176.000000,301.000000 
M137.994431,26.343987 
	C133.683487,26.357258 129.372513,26.389645 125.061630,26.379223 
	C118.916687,26.364368 112.771187,26.248285 106.627083,26.304117 
	C99.939751,26.364887 93.253815,26.575684 86.567146,26.715343 
	C83.372490,26.782070 80.173859,26.961708 76.983543,26.868174 
	C70.791588,26.686640 64.603981,26.128525 58.415051,26.135832 
	C52.061287,26.143333 45.701630,26.960373 39.356487,26.832201 
	C33.016666,26.704136 33.018997,26.383358 33.017494,32.843868 
	C33.002350,97.837624 32.988144,162.831375 32.975006,227.825134 
	C32.972149,241.951797 32.974590,256.078461 32.974590,270.439758 
	C42.449341,270.951996 51.494316,271.722260 60.548008,271.843903 
	C68.155540,271.946075 75.771515,271.078339 83.386765,271.017303 
	C100.883690,270.877045 118.382462,270.962494 135.880478,270.964233 
	C152.713882,270.965942 169.548065,270.878326 186.380447,271.013062 
	C202.924408,271.145477 219.466064,271.662842 236.009628,271.714020 
	C246.629944,271.746857 257.251587,271.226471 267.873383,270.988098 
	C270.808533,270.922211 273.746368,270.978058 276.805176,270.978058 
	C276.885864,269.161133 276.967163,268.183472 276.967285,267.205811 
	C276.976624,188.879593 276.979828,110.553383 276.980743,32.227165 
	C276.980743,31.227671 277.352783,29.852510 276.846039,29.303347 
	C275.620514,27.975239 274.036407,26.212988 272.490570,26.101664 
	C269.069946,25.855322 265.588654,26.627502 262.123199,26.775848 
	C258.931396,26.912476 255.727097,26.818130 252.529831,26.752050 
	C246.185669,26.620932 239.841980,26.295586 233.499130,26.319826 
	C227.462646,26.342896 221.426147,26.908785 215.392075,26.869211 
	C209.201324,26.828608 203.012283,26.084673 196.824692,26.113865 
	C187.604874,26.157362 178.388596,26.735973 169.167847,26.853251 
	C159.009430,26.982458 148.847672,26.847486 137.994431,26.343987 
z"/>
<path fill="#CB3837" opacity="1.000000" stroke="none" 
	d="
M138.340897,26.585791 
	C148.847672,26.847486 159.009430,26.982458 169.167847,26.853251 
	C178.388596,26.735973 187.604874,26.157362 196.824692,26.113865 
	C203.012283,26.084673 209.201324,26.828608 215.392075,26.869211 
	C221.426147,26.908785 227.462646,26.342896 233.499130,26.319826 
	C239.841980,26.295586 246.185669,26.620932 252.529831,26.752050 
	C255.727097,26.818130 258.931396,26.912476 262.123199,26.775848 
	C265.588654,26.627502 269.069946,25.855322 272.490570,26.101664 
	C274.036407,26.212988 275.620514,27.975239 276.846039,29.303347 
	C277.352783,29.852510 276.980743,31.227671 276.980743,32.227165 
	C276.979828,110.553383 276.976624,188.879593 276.967285,267.205811 
	C276.967163,268.183472 276.885864,269.161133 276.805176,270.978058 
	C273.746368,270.978058 270.808533,270.922211 267.873383,270.988098 
	C257.251587,271.226471 246.629944,271.746857 236.009628,271.714020 
	C219.466064,271.662842 202.924408,271.145477 186.380447,271.013062 
	C169.548065,270.878326 152.713882,270.965942 135.880478,270.964233 
	C118.382462,270.962494 100.883690,270.877045 83.386765,271.017303 
	C75.771515,271.078339 68.155540,271.946075 60.548008,271.843903 
	C51.494316,271.722260 42.449341,270.951996 32.974590,270.439758 
	C32.974590,256.078461 32.972149,241.951797 32.975006,227.825134 
	C32.988144,162.831375 33.002350,97.837624 33.017494,32.843868 
	C33.018997,26.383358 33.016666,26.704136 39.356487,26.832201 
	C45.701630,26.960373 52.061287,26.143333 58.415051,26.135832 
	C64.603981,26.128525 70.791588,26.686640 76.983543,26.868174 
	C80.173859,26.961708 83.372490,26.782070 86.567146,26.715343 
	C93.253815,26.575684 99.939751,26.364887 106.627083,26.304117 
	C112.771187,26.248285 118.916687,26.364368 125.061630,26.379223 
	C129.372513,26.389645 133.683487,26.357258 138.340897,26.585791 
M261.831665,107.482666 
	C261.554138,107.341614 261.276581,107.200562 260.082214,106.850075 
	C189.678452,106.850075 119.274681,106.850075 48.743454,106.850075 
	C48.743454,130.760056 48.743454,154.143906 48.743454,178.028091 
	C68.070122,178.028091 87.037338,178.028091 105.996162,178.924896 
	C106.531342,182.269348 107.066528,185.613785 108.276787,189.542435 
	C123.787300,189.542435 139.297821,189.542435 154.514603,189.542435 
	C155.067520,185.388657 155.550186,181.762512 156.275925,178.283920 
	C156.275925,178.283920 156.663574,178.299042 156.663574,178.299042 
	C156.663574,178.299042 156.991394,178.035324 157.913864,177.850388 
	C192.429535,177.850388 226.945206,177.850388 261.724823,177.850388 
	C261.724823,154.141037 261.724823,131.070923 261.831665,107.482666 
z"/>
<path fill="#FEFBFB" opacity="1.000000" stroke="none" 
	d="
M156.032867,178.136368 
	C155.550186,181.762512 155.067520,185.388657 154.514603,189.542435 
	C139.297821,189.542435 123.787300,189.542435 108.001175,188.849792 
	C107.734207,186.357803 107.972694,184.520615 107.684418,182.770172 
	C107.416191,181.141434 106.586861,179.605103 106.004562,178.028091 
	C87.037338,178.028091 68.070122,178.028091 48.743454,178.028091 
	C48.743454,154.143906 48.743454,130.760056 48.743454,106.850075 
	C119.274681,106.850075 189.678452,106.850075 260.624084,107.138412 
	C261.307617,107.661530 261.493896,107.852890 261.724823,108.000816 
	C261.724823,131.070923 261.724823,154.141037 261.724823,177.850388 
	C226.945206,177.850388 192.429535,177.850388 157.204956,177.891769 
	C156.341644,178.000885 156.187256,178.068634 156.032867,178.136368 
M249.987442,118.411835 
	C249.645737,118.325424 249.304047,118.239014 248.033661,118.062523 
	C225.350372,118.118393 202.667084,118.174263 179.198212,118.263214 
	C178.910660,119.495590 178.378433,120.726906 178.373093,121.960503 
	C178.313980,135.591965 178.325653,149.223816 178.355148,162.855453 
	C178.357925,164.140366 178.612076,165.424698 178.778778,166.982742 
	C186.048157,166.982742 193.017593,167.061508 199.981155,166.894745 
	C200.983307,166.870728 201.957153,165.664383 203.112427,164.080444 
	C203.112427,153.172684 203.112427,142.264923 203.112427,131.331833 
	C207.089905,131.331833 210.461517,131.331833 214.294708,131.331833 
	C214.294708,143.220657 214.294708,154.758667 214.294708,166.400528 
	C218.207245,166.400528 221.651901,166.400528 225.767609,166.248367 
	C225.869919,165.823105 225.972229,165.397858 226.290558,164.060303 
	C226.290558,153.139236 226.290558,142.218185 226.290558,131.269257 
	C230.502304,131.269257 234.075287,131.269257 238.102356,131.269257 
	C238.102356,143.108887 238.102356,154.661972 238.102356,166.381012 
	C241.996155,166.381012 245.431335,166.381012 249.623093,166.345139 
	C249.771774,165.890076 249.920471,165.434998 250.274048,164.064499 
	C250.203598,149.380554 250.133163,134.696609 250.200043,119.494865 
	C250.146469,119.324532 250.092880,119.154198 249.987442,118.411835 
M96.631531,166.594284 
	C100.390221,166.594284 104.148911,166.594284 107.855064,166.594284 
	C107.855064,150.079895 107.855064,134.210785 107.855064,118.386490 
	C91.709892,118.386490 75.981377,118.386490 60.241100,118.386490 
	C60.241100,134.597519 60.241100,150.466934 60.241100,166.384384 
	C68.359909,166.384384 76.105331,166.384384 84.350159,166.384384 
	C84.350159,154.483368 84.350159,142.897491 84.350159,130.540543 
	C88.599159,131.067398 92.269066,131.522446 95.776680,132.905670 
	C95.892952,143.921051 96.009232,154.936417 96.631531,166.594284 
M121.922806,178.378448 
	C128.603561,178.298294 135.284302,178.218155 142.643906,178.173782 
	C142.841980,177.802795 143.040070,177.431808 143.531891,176.293640 
	C143.531891,173.204941 143.531891,170.116241 143.531891,166.699539 
	C149.815552,166.699539 155.307663,166.377838 160.743256,166.794098 
	C165.730164,167.175995 167.454849,165.582214 167.325104,160.466660 
	C167.008667,147.991074 167.230682,135.502029 167.211411,123.018448 
	C167.208969,121.442894 167.059692,119.867561 166.977310,118.270065 
	C151.237915,118.270065 136.112473,118.270065 120.163162,118.231682 
	C119.818527,118.725014 119.174118,119.217377 119.172516,119.711815 
	C119.111839,138.478302 119.089180,157.245087 119.181419,176.011246 
	C119.184937,176.725647 120.374847,177.434219 121.922806,178.378448 
z"/>
<path fill="#C52120" opacity="1.000000" stroke="none" 
	d="
M106.000366,178.476501 
	C106.586861,179.605103 107.416191,181.141434 107.684418,182.770172 
	C107.972694,184.520615 107.734207,186.357803 107.663643,188.557693 
	C107.066528,185.613785 106.531342,182.269348 106.000366,178.476501 
z"/>
<path fill="#C51F1E" opacity="1.000000" stroke="none" 
	d="
M156.154388,178.210144 
	C156.187256,178.068634 156.341644,178.000885 156.743713,177.984238 
	C156.991394,178.035324 156.663574,178.299042 156.663574,178.299042 
	C156.663574,178.299042 156.275925,178.283920 156.154388,178.210144 
z"/>
<path fill="#F9E7E7" opacity="1.000000" stroke="none" 
	d="
M261.778259,107.741745 
	C261.493896,107.852890 261.307617,107.661530 261.082520,107.243126 
	C261.276581,107.200562 261.554138,107.341614 261.778259,107.741745 
z"/>
<path fill="#CB3938" opacity="1.000000" stroke="none" 
	d="
M250.062729,120.012665 
	C250.133163,134.696609 250.203598,149.380554 249.937408,164.724457 
	C249.356033,165.716614 249.111282,166.048813 248.866547,166.381012 
	C245.431335,166.381012 241.996155,166.381012 238.102356,166.381012 
	C238.102356,154.661972 238.102356,143.108887 238.102356,131.269257 
	C234.075287,131.269257 230.502304,131.269257 226.290558,131.269257 
	C226.290558,142.218185 226.290558,153.139236 225.979706,164.724884 
	C225.478088,165.726501 225.287323,166.063507 225.096558,166.400513 
	C221.651901,166.400528 218.207245,166.400528 214.294708,166.400528 
	C214.294708,154.758667 214.294708,143.220657 214.294708,131.331833 
	C210.461517,131.331833 207.089905,131.331833 203.112427,131.331833 
	C203.112427,142.264923 203.112427,153.172684 202.563232,164.538086 
	C197.014999,164.997482 192.015930,165.005585 187.016907,164.999466 
	C180.029129,164.990936 180.019745,164.986420 180.011902,158.222351 
	C179.996460,144.891617 179.992508,131.560867 179.983795,118.230133 
	C202.667084,118.174263 225.350372,118.118393 248.514740,118.278427 
	C248.995834,118.494324 249.006638,118.838715 249.143402,119.067841 
	C249.541016,119.535530 249.801865,119.774094 250.062729,120.012665 
z"/>
<path fill="#CB3A39" opacity="1.000000" stroke="none" 
	d="
M120.987022,118.270065 
	C136.112473,118.270065 151.237915,118.270065 166.977310,118.270065 
	C167.059692,119.867561 167.208969,121.442894 167.211411,123.018448 
	C167.230682,135.502029 167.008667,147.991074 167.325104,160.466660 
	C167.454849,165.582214 165.730164,167.175995 160.743256,166.794098 
	C155.307663,166.377838 149.815552,166.699539 143.531891,166.699539 
	C143.531891,170.116241 143.531891,173.204941 143.147461,176.825378 
	C142.497040,177.617416 142.231049,177.877716 141.965057,178.138016 
	C135.284302,178.218155 128.603561,178.298294 121.467789,177.783646 
	C121.004181,157.549255 120.995598,137.909653 120.987022,118.270065 
M143.583267,144.436218 
	C143.583267,147.845947 143.583267,151.255676 143.583267,155.201569 
	C147.734283,154.594193 150.924576,154.127380 154.379761,153.621811 
	C154.379761,146.189423 154.379761,138.789612 154.379761,131.255188 
	C150.717056,131.255188 147.333893,131.255188 143.583435,131.255188 
	C143.583435,135.525330 143.583435,139.495926 143.583267,144.436218 
z"/>
<path fill="#CB3938" opacity="1.000000" stroke="none" 
	d="
M95.938965,131.977493 
	C92.269066,131.522446 88.599159,131.067398 84.350159,130.540543 
	C84.350159,142.897491 84.350159,154.483368 84.350159,166.384384 
	C76.105331,166.384384 68.359909,166.384384 60.241100,166.384384 
	C60.241100,150.466934 60.241100,134.597519 60.241100,118.386490 
	C75.981377,118.386490 91.709892,118.386490 107.855064,118.386490 
	C107.855064,134.210785 107.855064,150.079895 107.855064,166.594284 
	C104.148911,166.594284 100.390221,166.594284 96.598816,165.928421 
	C96.710754,155.894928 96.912331,146.527496 96.948616,137.159454 
	C96.955299,135.433456 96.292664,133.704880 95.938965,131.977493 
z"/>
<path fill="#C72B2A" opacity="1.000000" stroke="none" 
	d="
M179.591003,118.246674 
	C179.992508,131.560867 179.996460,144.891617 180.011902,158.222351 
	C180.019745,164.986420 180.029129,164.990936 187.016907,164.999466 
	C192.015930,165.005585 197.014999,164.997482 202.479065,165.000458 
	C201.957153,165.664383 200.983307,166.870728 199.981155,166.894745 
	C193.017593,167.061508 186.048157,166.982742 178.778778,166.982742 
	C178.612076,165.424698 178.357925,164.140366 178.355148,162.855453 
	C178.325653,149.223816 178.313980,135.591965 178.373093,121.960503 
	C178.378433,120.726906 178.910660,119.495590 179.591003,118.246674 
z"/>
<path fill="#C8302F" opacity="1.000000" stroke="none" 
	d="
M120.575089,118.250870 
	C120.995598,137.909653 121.004181,157.549255 121.012344,177.667175 
	C120.374847,177.434219 119.184937,176.725647 119.181419,176.011246 
	C119.089180,157.245087 119.111839,138.478302 119.172516,119.711815 
	C119.174118,119.217377 119.818527,118.725014 120.575089,118.250870 
z"/>
<path fill="#C31E1E" opacity="1.000000" stroke="none" 
	d="
M95.857819,132.441589 
	C96.292664,133.704880 96.955299,135.433456 96.948616,137.159454 
	C96.912331,146.527496 96.710754,155.894928 96.345802,165.607178 
	C96.009232,154.936417 95.892952,143.921051 95.857819,132.441589 
z"/>
<path fill="#D55E5E" opacity="1.000000" stroke="none" 
	d="
M249.006638,118.838715 
	C249.006638,118.838715 248.995834,118.494324 248.979095,118.323463 
	C249.304047,118.239014 249.645737,118.325424 249.756165,118.654755 
	C249.352142,118.878021 249.179382,118.858368 249.006638,118.838715 
z"/>
<path fill="#C72B2A" opacity="1.000000" stroke="none" 
	d="
M249.143402,119.067841 
	C249.179382,118.858368 249.352142,118.878021 249.782104,118.940773 
	C250.092880,119.154198 250.146469,119.324532 250.131378,119.753769 
	C249.801865,119.774094 249.541016,119.535530 249.143402,119.067841 
z"/>
<path fill="#C52322" opacity="1.000000" stroke="none" 
	d="
M225.432083,166.324432 
	C225.287323,166.063507 225.478088,165.726501 225.871704,165.181030 
	C225.972229,165.397858 225.869919,165.823105 225.432083,166.324432 
z"/>
<path fill="#C72B2A" opacity="1.000000" stroke="none" 
	d="
M249.244812,166.363068 
	C249.111282,166.048813 249.356033,165.716614 249.834961,165.182175 
	C249.920471,165.434998 249.771774,165.890076 249.244812,166.363068 
z"/>
<path fill="#C8302F" opacity="1.000000" stroke="none" 
	d="
M142.304474,178.155899 
	C142.231049,177.877716 142.497040,177.617416 143.000595,177.208954 
	C143.040070,177.431808 142.841980,177.802795 142.304474,178.155899 
z"/>
<path fill="#FDF6F6" opacity="1.000000" stroke="none" 
	d="
M143.583344,143.951355 
	C143.583435,139.495926 143.583435,135.525330 143.583435,131.255188 
	C147.333893,131.255188 150.717056,131.255188 154.379761,131.255188 
	C154.379761,138.789612 154.379761,146.189423 154.379761,153.621811 
	C150.924576,154.127380 147.734283,154.594193 143.583267,155.201569 
	C143.583267,151.255676 143.583267,147.845947 143.583344,143.951355 
z"/>
</svg>