<svg version="1.1" id="Layer_1" xmlns="http://www.w3.org/2000/svg" xmlns:xlink="http://www.w3.org/1999/xlink" x="0px" y="0px"
	 width="100%" viewBox="0 0 300 300" enable-background="new 0 0 300 300" xml:space="preserve">
<path fill="#010101" opacity="1.000000" stroke="none" 
	d="
M301.000000,103.000000 
	C301.000000,169.333328 301.000000,235.166641 301.000000,301.000000 
	C201.000031,301.000000 101.000061,301.000000 1.000067,301.000000 
	C1.000045,201.000046 1.000045,101.000092 1.000022,1.000107 
	C100.999939,1.000071 200.999878,1.000071 300.999908,1.000036 
	C301.000000,34.833332 301.000000,68.666664 301.000000,103.000000 
M132.362518,20.963898 
	C129.252060,23.561552 126.152794,23.351492 122.303772,22.101959 
	C105.099747,16.516901 87.515106,13.493391 69.280800,14.940706 
	C45.943665,16.793047 27.968590,30.270048 22.624220,52.616016 
	C20.001148,63.583652 18.861347,75.498169 20.038206,86.669395 
	C23.325233,117.871254 31.545555,148.079163 43.804214,176.963470 
	C48.162334,187.232224 53.936348,197.257614 60.826221,206.006302 
	C70.013016,217.671600 81.916893,217.058670 91.848785,206.056351 
	C99.983009,197.045456 108.065498,187.987869 115.691734,179.485245 
	C122.302155,181.210876 128.239944,182.760925 134.300507,184.343033 
	C130.390152,191.624527 124.481834,195.501022 116.643082,197.019287 
	C112.281616,197.864059 107.826920,199.007233 103.864456,200.939285 
	C98.639313,203.486954 98.348007,208.353851 102.724136,212.224182 
	C104.067299,213.412109 105.679779,214.467926 107.353271,215.081116 
	C116.261940,218.345291 125.517075,219.798813 134.705688,217.121353 
	C141.058670,215.270157 147.005463,212.024963 153.476837,209.255859 
	C153.476837,210.791504 153.386337,212.876587 153.491196,214.951782 
	C154.313538,231.226974 154.009674,247.669418 156.343674,263.727356 
	C158.753784,280.308868 170.555389,293.470551 190.580536,290.867004 
	C197.548798,289.961029 204.470703,287.649048 211.047729,285.052155 
	C219.037811,281.897308 224.428925,275.490753 226.746552,267.339752 
	C229.098145,259.069244 230.607742,250.518280 231.919418,242.002853 
	C233.786972,229.878693 235.137314,217.674896 236.635162,206.074020 
	C244.097717,206.074020 251.213104,206.535294 258.246887,205.973969 
	C271.208374,204.939621 282.836182,200.390320 292.067657,190.849136 
	C294.409668,188.428574 297.083191,185.061584 294.455414,182.153824 
	C292.641602,180.146805 288.618683,179.303894 285.621643,179.384109 
	C280.509094,179.520920 275.447174,180.975693 270.326813,181.539368 
	C264.012909,182.234406 257.743500,182.079361 251.713943,178.756531 
	C254.991684,173.413834 258.238739,168.410248 261.201721,163.243744 
	C278.071991,133.827347 290.251617,102.763596 293.572296,68.729210 
	C294.531860,58.894955 294.717804,48.802162 288.366211,40.441360 
	C280.380463,29.929426 270.069244,22.077805 257.735229,17.188477 
	C235.457504,8.357361 212.831604,9.542604 190.038483,15.005290 
	C186.935043,15.749074 183.474335,15.878795 180.320175,15.387248 
	C164.057892,12.852921 148.161774,13.004555 132.362518,20.963898 
z"/>
<path fill="#F8FAFB" opacity="1.000000" stroke="none" 
	d="
M132.697723,20.758556 
	C148.161774,13.004555 164.057892,12.852921 180.320175,15.387248 
	C183.474335,15.878795 186.935043,15.749074 190.038483,15.005290 
	C212.831604,9.542604 235.457504,8.357361 257.735229,17.188477 
	C270.069244,22.077805 280.380463,29.929426 288.366211,40.441360 
	C294.717804,48.802162 294.531860,58.894955 293.572296,68.729210 
	C290.251617,102.763596 278.071991,133.827347 261.201721,163.243744 
	C258.238739,168.410248 254.991684,173.413834 251.713943,178.756531 
	C257.743500,182.079361 264.012909,182.234406 270.326813,181.539368 
	C275.447174,180.975693 280.509094,179.520920 285.621643,179.384109 
	C288.618683,179.303894 292.641602,180.146805 294.455414,182.153824 
	C297.083191,185.061584 294.409668,188.428574 292.067657,190.849136 
	C282.836182,200.390320 271.208374,204.939621 258.246887,205.973969 
	C251.213104,206.535294 244.097717,206.074020 236.635162,206.074020 
	C235.137314,217.674896 233.786972,229.878693 231.919418,242.002853 
	C230.607742,250.518280 229.098145,259.069244 226.746552,267.339752 
	C224.428925,275.490753 219.037811,281.897308 211.047729,285.052155 
	C204.470703,287.649048 197.548798,289.961029 190.580536,290.867004 
	C170.555389,293.470551 158.753784,280.308868 156.343674,263.727356 
	C154.009674,247.669418 154.313538,231.226974 153.491196,214.951782 
	C153.386337,212.876587 153.476837,210.791504 153.476837,209.255859 
	C147.005463,212.024963 141.058670,215.270157 134.705688,217.121353 
	C125.517075,219.798813 116.261940,218.345291 107.353271,215.081116 
	C105.679779,214.467926 104.067299,213.412109 102.724136,212.224182 
	C98.348007,208.353851 98.639313,203.486954 103.864456,200.939285 
	C107.826920,199.007233 112.281616,197.864059 116.643082,197.019287 
	C124.481834,195.501022 130.390152,191.624527 134.300507,184.343033 
	C128.239944,182.760925 122.302155,181.210876 115.691734,179.485245 
	C108.065498,187.987869 99.983009,197.045456 91.848785,206.056351 
	C81.916893,217.058670 70.013016,217.671600 60.826221,206.006302 
	C53.936348,197.257614 48.162334,187.232224 43.804214,176.963470 
	C31.545555,148.079163 23.325233,117.871254 20.038206,86.669395 
	C18.861347,75.498169 20.001148,63.583652 22.624220,52.616016 
	C27.968590,30.270048 45.943665,16.793047 69.280800,14.940706 
	C87.515106,13.493391 105.099747,16.516901 122.303772,22.101959 
	C126.152794,23.351492 129.252060,23.561552 132.697723,20.758556 
M218.802612,92.707283 
	C214.669601,97.581703 215.168076,103.474670 216.311996,108.884392 
	C220.418015,128.302399 231.549835,144.563004 240.867233,162.694061 
	C241.881958,160.313522 242.955795,158.868484 243.067932,157.352310 
	C243.674988,149.145309 244.867676,140.862625 244.293289,132.716400 
	C243.520340,121.754135 242.350098,110.914146 244.508881,99.986916 
	C245.293762,96.014030 245.473114,91.921532 246.064285,86.682381 
	C238.419708,87.163116 231.718353,87.584534 224.428772,88.069687 
	C224.256393,88.780724 224.084000,89.491760 223.911621,90.202797 
	C224.263428,89.844727 224.615250,89.486656 225.885956,89.108467 
	C228.847229,89.111313 231.856644,88.784813 234.756378,89.208679 
	C237.716263,89.641342 240.098984,91.339806 239.699753,94.872749 
	C239.222443,99.096550 233.089722,103.404549 228.545273,102.896675 
	C223.156265,102.294426 220.023773,98.643860 220.820953,92.971619 
	C220.960281,92.350182 221.099609,91.728737 221.238937,91.107292 
	C220.616669,91.492447 219.994400,91.877602 218.802612,92.707283 
M144.009033,94.996269 
	C144.009033,94.996269 144.055954,95.011948 144.026672,94.302834 
	C141.209061,92.467270 138.596451,89.580612 135.537231,88.983940 
	C124.225227,86.777626 114.394951,91.470467 105.060448,97.161293 
	C104.060417,97.770966 103.694756,99.986412 103.633133,101.481621 
	C103.085999,114.757339 102.836189,128.046631 102.181885,141.316299 
	C101.304825,159.103745 116.614342,177.595795 135.001724,176.481079 
	C137.166183,170.594772 138.786133,164.422577 141.602890,158.855957 
	C150.523956,141.225708 151.707687,122.939323 147.238678,104.039032 
	C146.502930,100.927399 145.091919,97.975433 144.009033,94.996269 
M160.000824,237.757507 
	C160.250931,239.486710 160.501053,241.215912 160.973831,243.822754 
	C161.373138,248.967392 161.432785,254.166214 162.243225,259.245239 
	C163.876968,269.484039 167.522156,278.820251 178.082733,282.918732 
	C195.324432,289.610046 218.598846,277.601654 221.845352,259.520142 
	C225.487061,239.237411 227.972046,218.716919 230.140488,198.213165 
	C231.134415,188.815079 232.300613,180.503250 242.405533,178.146301 
	C236.307236,167.493027 230.215683,157.220505 224.488449,146.748734 
	C218.017670,134.917480 211.913254,122.876122 209.394150,109.442223 
	C206.352463,93.221397 213.162292,83.204163 229.404968,80.641060 
	C234.355179,79.859909 239.532806,80.519951 245.307251,80.519951 
	C235.750458,56.941288 221.140076,39.091560 198.708694,28.372726 
	C184.860840,21.755539 170.050980,19.674225 154.890717,21.257620 
	C138.532867,22.966097 125.746689,30.895128 116.996040,44.999004 
	C108.686752,58.391514 104.828156,73.065399 103.817940,88.838287 
	C110.337494,86.590424 116.159592,84.106697 122.223076,82.584534 
	C138.387253,78.526718 149.816132,84.549881 153.268555,98.984657 
	C158.269577,119.894135 158.413849,140.463791 148.470459,160.334961 
	C145.613205,166.044983 143.879303,172.317154 141.532028,178.594543 
	C154.227509,178.477951 160.337830,184.124573 160.425034,196.005478 
	C160.525253,209.657547 160.170151,223.312943 160.000824,237.757507 
M66.880371,202.687454 
	C73.629700,208.508270 78.797760,209.365005 84.018051,204.040131 
	C93.168839,194.706009 101.680069,184.744858 110.625916,174.862228 
	C97.785149,163.749985 93.812889,150.089890 95.803459,133.821472 
	C97.049500,123.637825 97.135109,113.212288 96.681496,102.942101 
	C95.827393,83.604408 98.903374,65.129799 107.569496,47.848812 
	C110.935265,41.137184 115.700195,35.127213 120.031631,28.484976 
	C100.735168,22.612127 81.134514,18.767500 60.899040,23.387873 
	C44.603867,27.108553 34.009346,37.409225 29.244318,53.407593 
	C26.026939,64.209801 25.130522,75.371536 26.602913,86.509720 
	C30.275883,114.294586 37.409939,141.263107 47.191792,167.495010 
	C51.837959,179.954590 56.918350,192.306320 66.880371,202.687454 
M285.734283,78.172646 
	C286.151398,71.702950 286.879333,65.233948 286.893799,58.763355 
	C286.906921,52.890583 285.536774,47.381378 281.362061,42.656239 
	C258.834259,17.158136 230.133179,14.828799 198.355667,20.045179 
	C199.633835,20.964191 200.103622,21.436972 200.671341,21.690601 
	C219.269211,29.999550 232.921646,43.734032 243.430130,60.842407 
	C250.274506,71.985443 255.002945,83.629044 251.957870,97.204453 
	C249.531082,108.023438 249.477859,118.964752 251.032410,129.960831 
	C252.850754,142.822754 253.032944,155.520081 246.277908,167.366760 
	C245.777451,168.244446 246.733002,169.952362 247.288696,172.588379 
	C266.724915,142.913574 279.372711,112.292168 285.734283,78.172646 
M152.975372,197.275955 
	C154.219437,192.397339 152.391068,187.980392 148.309677,185.975586 
	C144.045624,183.881042 141.661942,186.738724 139.617691,189.586990 
	C133.552216,198.038071 125.542900,202.980606 115.163803,204.246979 
	C112.543846,204.566650 110.026360,205.726166 106.863091,206.680328 
	C119.300240,214.213867 141.461777,214.282654 152.975372,197.275955 
M242.258087,185.626038 
	C241.317062,186.295212 239.832916,186.781494 239.534698,187.667130 
	C238.554428,190.578232 237.334412,193.701202 237.624664,196.600830 
	C237.737778,197.730865 241.562134,199.076279 243.802017,199.310593 
	C257.588562,200.752747 270.596863,198.397476 282.255066,190.455261 
	C283.320007,189.729752 284.181976,188.706223 285.138184,187.821075 
	C282.245636,187.051102 279.965118,187.309128 277.683502,187.556747 
	C268.436920,188.560242 259.233185,189.721725 250.209427,185.876984 
	C248.085114,184.971863 245.375366,185.440765 242.258087,185.626038 
z"/>
<path fill="#346891" opacity="1.000000" stroke="none" 
	d="
M160.012817,236.966904 
	C160.170151,223.312943 160.525253,209.657547 160.425034,196.005478 
	C160.337830,184.124573 154.227509,178.477951 141.532028,178.594543 
	C143.879303,172.317154 145.613205,166.044983 148.470459,160.334961 
	C158.413849,140.463791 158.269577,119.894135 153.268555,98.984657 
	C149.816132,84.549881 138.387253,78.526718 122.223076,82.584534 
	C116.159592,84.106697 110.337494,86.590424 103.817940,88.838287 
	C104.828156,73.065399 108.686752,58.391514 116.996040,44.999004 
	C125.746689,30.895128 138.532867,22.966097 154.890717,21.257620 
	C170.050980,19.674225 184.860840,21.755539 198.708694,28.372726 
	C221.140076,39.091560 235.750458,56.941288 245.307251,80.519951 
	C239.532806,80.519951 234.355179,79.859909 229.404968,80.641060 
	C213.162292,83.204163 206.352463,93.221397 209.394150,109.442223 
	C211.913254,122.876122 218.017670,134.917480 224.488449,146.748734 
	C230.215683,157.220505 236.307236,167.493027 242.405533,178.146301 
	C232.300613,180.503250 231.134415,188.815079 230.140488,198.213165 
	C227.972046,218.716919 225.487061,239.237411 221.845352,259.520142 
	C218.598846,277.601654 195.324432,289.610046 178.082733,282.918732 
	C167.522156,278.820251 163.876968,269.484039 162.243225,259.245239 
	C161.432785,254.166214 161.373138,248.967392 160.891434,242.989441 
	C160.543640,240.426376 160.278229,238.696640 160.012817,236.966904 
z"/>
<path fill="#346891" opacity="1.000000" stroke="none" 
	d="
M66.623734,202.429535 
	C56.918350,192.306320 51.837959,179.954590 47.191792,167.495010 
	C37.409939,141.263107 30.275883,114.294586 26.602913,86.509720 
	C25.130522,75.371536 26.026939,64.209801 29.244318,53.407593 
	C34.009346,37.409225 44.603867,27.108553 60.899040,23.387873 
	C81.134514,18.767500 100.735168,22.612127 120.031631,28.484976 
	C115.700195,35.127213 110.935265,41.137184 107.569496,47.848812 
	C98.903374,65.129799 95.827393,83.604408 96.681496,102.942101 
	C97.135109,113.212288 97.049500,123.637825 95.803459,133.821472 
	C93.812889,150.089890 97.785149,163.749985 110.625916,174.862228 
	C101.680069,184.744858 93.168839,194.706009 84.018051,204.040131 
	C78.797760,209.365005 73.629700,208.508270 66.623734,202.429535 
z"/>
<path fill="#356892" opacity="1.000000" stroke="none" 
	d="
M285.657654,78.601341 
	C279.372711,112.292168 266.724915,142.913574 247.288696,172.588379 
	C246.733002,169.952362 245.777451,168.244446 246.277908,167.366760 
	C253.032944,155.520081 252.850754,142.822754 251.032410,129.960831 
	C249.477859,118.964752 249.531082,108.023438 251.957870,97.204453 
	C255.002945,83.629044 250.274506,71.985443 243.430130,60.842407 
	C232.921646,43.734032 219.269211,29.999550 200.671341,21.690601 
	C200.103622,21.436972 199.633835,20.964191 198.355667,20.045179 
	C230.133179,14.828799 258.834259,17.158136 281.362061,42.656239 
	C285.536774,47.381378 286.906921,52.890583 286.893799,58.763355 
	C286.879333,65.233948 286.151398,71.702950 285.657654,78.601341 
z"/>
<path fill="#366992" opacity="1.000000" stroke="none" 
	d="
M143.992996,94.949669 
	C145.091919,97.975433 146.502930,100.927399 147.238678,104.039032 
	C151.707687,122.939323 150.523956,141.225708 141.602890,158.855957 
	C138.786133,164.422577 137.166183,170.594772 135.001724,176.481079 
	C116.614342,177.595795 101.304825,159.103745 102.181885,141.316299 
	C102.836189,128.046631 103.085999,114.757339 103.633133,101.481621 
	C103.694756,99.986412 104.060417,97.770966 105.060448,97.161293 
	C114.394951,91.470467 124.225227,86.777626 135.537231,88.983940 
	C138.596451,89.580612 141.209061,92.467270 143.738556,94.962692 
	C139.544876,92.225861 134.892517,91.057800 129.973892,92.019135 
	C127.973549,92.410103 125.434624,93.915497 124.675728,95.603806 
	C124.030373,97.039497 125.089050,99.856003 126.273926,101.375130 
	C128.975204,104.838470 132.616211,106.596222 137.243500,105.244446 
	C142.470718,103.717430 144.235977,100.014977 143.992996,94.949669 
z"/>
<path fill="#376A93" opacity="1.000000" stroke="none" 
	d="
M220.317978,93.308685 
	C220.023773,98.643860 223.156265,102.294426 228.545273,102.896675 
	C233.089722,103.404549 239.222443,99.096550 239.699753,94.872749 
	C240.098984,91.339806 237.716263,89.641342 234.756378,89.208679 
	C231.856644,88.784813 228.847229,89.111313 225.372513,88.834900 
	C224.911728,88.376213 224.964371,88.191078 225.017014,88.005951 
	C231.718353,87.584534 238.419708,87.163116 246.064285,86.682381 
	C245.473114,91.921532 245.293762,96.014030 244.508881,99.986916 
	C242.350098,110.914146 243.520340,121.754135 244.293289,132.716400 
	C244.867676,140.862625 243.674988,149.145309 243.067932,157.352310 
	C242.955795,158.868484 241.881958,160.313522 240.867233,162.694061 
	C231.549835,144.563004 220.418015,128.302399 216.311996,108.884392 
	C215.168076,103.474670 214.669601,97.581703 219.314331,92.755112 
	C219.990021,92.971519 220.153992,93.140099 220.317978,93.308685 
z"/>
<path fill="#3A6C95" opacity="1.000000" stroke="none" 
	d="
M152.788010,197.595184 
	C141.461777,214.282654 119.300240,214.213867 106.863091,206.680328 
	C110.026360,205.726166 112.543846,204.566650 115.163803,204.246979 
	C125.542900,202.980606 133.552216,198.038071 139.617691,189.586990 
	C141.661942,186.738724 144.045624,183.881042 148.309677,185.975586 
	C152.391068,187.980392 154.219437,192.397339 152.788010,197.595184 
z"/>
<path fill="#3C6E96" opacity="1.000000" stroke="none" 
	d="
M242.596527,185.451782 
	C245.375366,185.440765 248.085114,184.971863 250.209427,185.876984 
	C259.233185,189.721725 268.436920,188.560242 277.683502,187.556747 
	C279.965118,187.309128 282.245636,187.051102 285.138184,187.821075 
	C284.181976,188.706223 283.320007,189.729752 282.255066,190.455261 
	C270.596863,198.397476 257.588562,200.752747 243.802017,199.310593 
	C241.562134,199.076279 237.737778,197.730865 237.624664,196.600830 
	C237.334412,193.701202 238.554428,190.578232 239.534698,187.667130 
	C239.832916,186.781494 241.317062,186.295212 242.596527,185.451782 
z"/>
<path fill="#F7F8F9" opacity="1.000000" stroke="none" 
	d="
M160.006821,237.362213 
	C160.278229,238.696640 160.543640,240.426376 160.780106,242.550613 
	C160.501053,241.215912 160.250931,239.486710 160.006821,237.362213 
z"/>
<path fill="#F7F8F9" opacity="1.000000" stroke="none" 
	d="
M224.722900,88.037819 
	C224.964371,88.191078 224.911728,88.376213 224.913071,88.844963 
	C224.615250,89.486656 224.263428,89.844727 223.911621,90.202789 
	C224.084000,89.491760 224.256393,88.780724 224.722900,88.037819 
z"/>
<path fill="#376A93" opacity="1.000000" stroke="none" 
	d="
M219.599091,92.532852 
	C219.994400,91.877602 220.616669,91.492447 221.238937,91.107300 
	C221.099609,91.728737 220.960281,92.350182 220.569458,93.140152 
	C220.153992,93.140099 219.990021,92.971519 219.599091,92.532852 
z"/>
<path fill="#F7F9FB" opacity="1.000000" stroke="none" 
	d="
M144.001007,94.972969 
	C144.235977,100.014977 142.470718,103.717430 137.243500,105.244446 
	C132.616211,106.596222 128.975204,104.838470 126.273926,101.375130 
	C125.089050,99.856003 124.030373,97.039497 124.675728,95.603806 
	C125.434624,93.915497 127.973549,92.410103 129.973892,92.019135 
	C134.892517,91.057800 139.544876,92.225861 143.753204,95.317245 
	C144.055954,95.011948 144.009033,94.996269 144.001007,94.972969 
z"/>
</svg>