<svg version="1.1" id="Layer_1" xmlns="http://www.w3.org/2000/svg" xmlns:xlink="http://www.w3.org/1999/xlink" x="0px" y="0px"
	 width="100%" viewBox="0 0 300 300" enable-background="new 0 0 300 300" xml:space="preserve">
<path fill="#000000" opacity="1.000000" stroke="none" 
	d="
M176.000000,301.000000 
	C118.666679,301.000000 61.833260,300.960785 5.000264,301.097107 
	C1.575327,301.105316 0.900214,300.424103 0.904390,296.999908 
	C1.023108,199.666748 1.023101,102.333366 0.904406,5.000201 
	C0.900231,1.576262 1.575732,0.900207 5.000031,0.904383 
	C102.333191,1.023108 199.666565,1.023097 296.999725,0.904415 
	C300.423523,0.900241 301.099823,1.575552 301.095642,4.999978 
	C300.976929,102.333145 300.976898,199.666534 301.095581,296.999695 
	C301.099731,300.423431 300.426239,301.111572 296.999817,301.098480 
	C256.833679,300.944977 216.666733,301.000000 176.000000,301.000000 
z"/>
<path fill="#3774A7" opacity="1.000000" stroke="none" 
	d="
M12.920118,120.378441 
	C17.519018,101.972282 26.432686,88.006783 45.879215,83.483261 
	C47.370129,83.136452 48.800919,83.006378 50.269512,83.005669 
	C68.538933,82.996849 86.808357,83.016449 105.542343,83.097870 
	C109.442039,85.390747 113.371841,84.957832 117.110641,84.944260 
	C138.258057,84.867554 159.309540,87.212730 180.479721,87.080368 
	C192.569687,87.004768 204.648056,89.371117 216.828964,88.568039 
	C217.678329,88.512047 218.452911,88.877480 219.494843,89.673813 
	C220.062775,101.509140 220.765350,113.068565 216.999329,124.245247 
	C216.375565,126.096428 215.479645,127.855896 214.410568,129.850555 
	C209.802719,133.967087 204.540237,133.518646 199.435715,132.877045 
	C195.777557,132.417221 192.145798,132.200790 188.484161,132.222549 
	C166.336731,132.354156 144.271423,130.228867 122.125992,129.916611 
	C107.180031,129.705887 92.224625,128.609283 77.261391,128.066330 
	C59.639969,127.426910 42.034950,126.380058 24.397764,125.967712 
	C20.226194,125.870186 15.047211,126.288521 12.920118,120.378441 
z"/>
<path fill="#FFCF3F" opacity="1.000000" stroke="none" 
	d="
M287.830383,183.630325 
	C284.159760,203.311676 267.846832,219.586655 246.313202,219.158264 
	C214.899033,218.533325 183.463120,219.000671 151.575378,219.022644 
	C149.419113,221.029617 147.103195,221.170700 144.745529,221.180969 
	C125.990242,221.262665 107.234879,221.272125 88.479774,221.163300 
	C86.519753,221.151917 84.443756,221.317062 82.509888,219.361664 
	C81.880524,207.277756 81.616852,195.559387 83.091629,183.439941 
	C85.232262,181.547455 87.616310,181.778351 89.931419,181.778214 
	C153.075867,181.774765 216.220337,181.745773 279.364746,181.811676 
	C282.130707,181.814560 285.082245,181.237534 287.830383,183.630325 
z"/>
<path fill="#FFD444" opacity="1.000000" stroke="none" 
	d="
M288.459747,183.844543 
	C222.695068,184.027100 157.273453,184.013977 91.851822,183.998505 
	C89.194649,183.997879 86.512962,184.208130 83.565208,183.084167 
	C87.168045,162.500397 105.647797,154.788818 122.053352,154.952194 
	C141.692627,155.147766 161.338226,154.793304 180.975494,155.071243 
	C193.825745,155.253113 205.996429,153.727448 216.626160,145.032211 
	C220.415359,143.945358 223.901123,144.856934 227.376358,144.822250 
	C247.521515,144.621155 267.669708,145.052139 287.813965,144.564011 
	C289.017822,144.534851 290.132904,144.637070 291.486023,145.667969 
	C294.136597,157.490692 291.697632,168.686234 289.499603,179.857941 
	C289.255188,181.100220 289.329254,182.448212 288.459747,183.844543 
z"/>
<path fill="#3770A1" opacity="1.000000" stroke="none" 
	d="
M12.619642,120.133095 
	C16.610912,123.902252 21.709578,123.977211 26.355276,123.863693 
	C40.165573,123.526253 53.912605,124.765198 67.680023,125.192726 
	C84.084633,125.702148 100.507515,126.242218 116.897377,127.136772 
	C133.135056,128.023010 149.443130,127.748245 165.601364,129.234192 
	C177.701370,130.346924 189.859955,128.740128 201.872833,130.926132 
	C205.674896,131.617981 209.467896,130.538925 213.678650,130.038910 
	C209.100723,139.466446 200.589569,143.689255 190.700073,146.038559 
	C186.286118,147.087112 181.859680,146.996719 177.409027,146.998016 
	C155.788513,147.004318 134.167953,146.971298 112.547531,147.014664 
	C104.311333,147.031189 96.762962,149.508362 89.747772,153.758728 
	C84.634239,156.856949 81.275322,161.427109 78.400589,166.858780 
	C75.170898,170.598145 71.552780,171.837723 67.041725,170.488571 
	C65.626427,170.065262 64.073311,170.166351 62.583736,170.225449 
	C49.146931,170.758591 35.784035,168.858582 22.347506,169.028320 
	C18.345118,169.078873 13.975190,169.081818 10.475808,165.345230 
	C7.721164,149.965591 9.369477,135.136108 12.619642,120.133095 
z"/>
<path fill="#3778AF" opacity="1.000000" stroke="none" 
	d="
M219.894562,89.600143 
	C207.726761,92.590309 195.665161,89.927567 183.595627,89.519524 
	C180.478683,89.414154 177.312958,88.965111 174.166946,89.023247 
	C152.715012,89.419624 131.380722,87.320480 110.007141,86.064308 
	C108.415459,85.970764 106.501091,86.255844 106.048233,83.541718 
	C119.492027,83.114273 132.979462,82.905830 146.460800,83.107246 
	C150.318939,83.164886 151.151291,81.953827 151.140137,78.321373 
	C151.129211,74.765961 150.044250,73.893875 146.598267,73.920860 
	C126.617256,74.077339 106.633545,73.901085 86.652954,74.082100 
	C82.957588,74.115570 81.762184,73.201317 81.912491,69.400009 
	C82.221474,61.585667 82.019951,53.751141 82.097694,45.460560 
	C84.225761,42.944405 86.812637,43.932415 89.173729,43.873051 
	C92.275734,43.795048 95.374763,43.743450 98.855728,43.537937 
	C101.478607,44.031231 102.360962,45.794758 103.368027,47.559063 
	C107.708145,55.162632 114.475731,55.764233 120.199570,49.082203 
	C121.485466,47.581043 122.451065,45.770927 124.868347,44.953175 
	C134.613861,46.727390 144.130829,45.600098 153.562241,46.640598 
	C173.208023,48.807976 193.075882,47.076225 212.745560,49.370399 
	C214.875534,49.618824 217.006592,48.296741 219.475220,49.703396 
	C219.996811,61.621502 220.335953,73.246353 219.660049,84.869141 
	C219.576599,86.304314 219.849045,87.760193 219.894562,89.600143 
z"/>
<path fill="#387CB5" opacity="1.000000" stroke="none" 
	d="
M219.888367,49.632084 
	C213.151627,53.501717 206.120651,50.965267 199.374756,50.671333 
	C193.442383,50.412842 187.476517,49.854965 181.542419,50.062115 
	C164.290237,50.664356 147.211334,47.359077 129.972931,47.999275 
	C127.990891,48.072887 126.566605,46.842934 124.532791,46.085274 
	C122.296761,45.283340 122.267288,43.472717 121.701591,41.951859 
	C120.020096,37.431225 116.162537,34.137047 112.230476,34.333172 
	C107.908821,34.548733 104.763512,36.786842 103.113228,40.909298 
	C102.558273,42.295593 102.032768,43.707596 100.411148,44.776768 
	C94.417679,46.402901 88.698471,46.558647 82.563980,45.082245 
	C80.096542,30.796368 89.951347,21.147945 103.531242,16.066711 
	C114.008484,12.146411 125.006004,10.832481 136.170410,9.779112 
	C154.106323,8.086845 171.623215,9.606868 188.890167,14.149627 
	C197.152283,16.323303 204.729630,20.077013 211.016632,26.359522 
	C217.479691,32.817951 219.401062,40.688828 219.888367,49.632084 
z"/>
<path fill="#FFCA39" opacity="1.000000" stroke="none" 
	d="
M82.090286,219.460266 
	C104.830742,219.005371 127.496666,219.014130 150.638428,219.032898 
	C150.798965,227.998917 150.798965,227.998932 159.589462,227.998932 
	C178.235062,227.998932 196.882202,228.125381 215.524963,227.895111 
	C219.381332,227.847473 220.252045,228.956863 220.087494,232.597473 
	C219.779572,239.409470 219.985977,246.244705 219.905930,253.533783 
	C214.482758,258.930725 208.549774,257.552612 202.165619,255.506775 
	C199.632538,255.001816 198.563431,253.197586 197.093231,251.885391 
	C191.929382,247.276535 187.714249,247.324478 182.610901,251.991058 
	C181.025223,253.441010 179.667358,255.195374 176.970367,255.755310 
	C174.533325,257.435699 172.126678,257.155609 169.832687,257.164581 
	C143.043152,257.269470 116.253387,257.244324 89.463814,257.174713 
	C87.188248,257.168793 84.742599,257.548859 82.501007,255.352966 
	C82.116264,243.306137 82.066010,231.615036 82.090286,219.460266 
z"/>
<path fill="#FFC534" opacity="1.000000" stroke="none" 
	d="
M200.858887,254.161285 
	C207.111343,255.018402 213.056442,255.605988 219.418472,254.005112 
	C222.145187,272.027435 210.619263,281.979675 194.647568,287.030731 
	C180.465912,291.515656 165.896194,293.475403 151.141998,292.868408 
	C136.191498,292.253296 121.106064,291.591431 106.915443,285.931763 
	C93.950089,280.760803 82.263214,270.386536 82.092026,255.415558 
	C110.574135,254.998154 138.981796,254.980728 167.389359,255.024490 
	C170.726868,255.029633 174.015869,254.862976 177.688568,254.054413 
	C179.930481,255.184952 179.816498,257.106232 180.156204,258.892365 
	C181.074417,263.720367 185.300797,267.577942 189.667786,267.697266 
	C193.851837,267.811615 198.080521,263.880798 199.038773,259.006592 
	C199.356842,257.388763 199.400330,255.676590 200.858887,254.161285 
z"/>
<path fill="#366C98" opacity="1.000000" stroke="none" 
	d="
M10.099752,165.422653 
	C17.992723,166.751022 25.976400,166.570999 33.906509,167.181595 
	C46.159363,168.124985 58.482254,167.114365 70.671906,168.886810 
	C73.179008,169.251358 75.102295,167.644012 77.729721,167.096451 
	C72.514793,180.142899 74.281960,193.985535 73.961533,207.626709 
	C73.861176,211.899323 75.808792,217.414932 73.082375,220.108475 
	C70.365036,222.793060 64.851166,221.006851 60.586182,220.917374 
	C53.999580,220.779160 47.297520,222.054718 40.842213,219.856903 
	C32.443104,216.997269 25.716455,211.778336 21.150906,204.237991 
	C14.037803,192.490189 11.094887,179.416702 10.099752,165.422653 
z"/>
<path fill="#FFD94A" opacity="1.000000" stroke="none" 
	d="
M291.906006,145.540100 
	C286.281494,147.426331 280.615234,146.981705 274.982330,146.990524 
	C258.192047,147.016815 241.401718,147.004074 224.611420,146.995224 
	C222.133545,146.993927 219.577820,147.292023 217.218475,145.178299 
	C219.592484,140.373871 223.195923,136.332657 224.801865,131.309875 
	C226.910721,124.714165 228.514862,117.948784 228.091568,110.449173 
	C229.627533,107.975830 231.805405,107.856682 233.996948,107.840759 
	C249.311295,107.729446 264.625732,107.730347 279.940125,107.838959 
	C281.794281,107.852104 283.607483,108.040901 285.470093,109.655441 
	C288.895020,116.638893 290.204773,123.670547 291.123474,130.897507 
	C291.726318,135.639648 292.016998,140.334351 291.906006,145.540100 
z"/>
<path fill="#FFDE4F" opacity="1.000000" stroke="none" 
	d="
M285.902130,109.620407 
	C266.916534,109.998375 247.999802,109.998680 228.624985,109.998535 
	C228.110901,101.369095 228.171524,92.736877 227.933014,84.112946 
	C227.853928,81.253456 229.052902,80.918510 231.432999,80.954399 
	C239.233994,81.072006 247.077759,80.500687 254.830811,81.121628 
	C265.060944,81.940956 272.936035,87.547516 278.861115,95.678940 
	C281.861877,99.797073 284.800507,104.096207 285.902130,109.620407 
z"/>
<path fill="#000000" opacity="1.000000" stroke="none" 
	d="
M100.429611,45.167770 
	C100.244423,35.356178 109.424210,29.411955 116.666664,33.091858 
	C121.413116,35.503548 124.695404,39.244549 124.103981,45.580559 
	C120.609459,55.311440 113.206017,58.517719 105.772087,53.913300 
	C102.626549,51.965015 100.942833,49.084770 100.429611,45.167770 
z"/>
<path fill="#000000" opacity="1.000000" stroke="none" 
	d="
M201.017197,253.673920 
	C201.751770,258.489777 201.835770,263.029480 198.117828,266.259338 
	C194.483032,269.416992 190.232391,271.579926 185.316467,268.956879 
	C179.741913,265.982391 176.965836,261.401123 178.066422,254.474670 
	C185.280579,243.362549 194.420151,243.794083 201.017197,253.673920 
z"/>
</svg>