<svg version="1.1" id="Layer_1" xmlns="http://www.w3.org/2000/svg" xmlns:xlink="http://www.w3.org/1999/xlink" x="0px" y="0px"
	 width="100%" viewBox="0 0 300 300" enable-background="new 0 0 300 300" xml:space="preserve">
<path fill="#000000" opacity="1.000000" stroke="none" 
	d="
M301.000000,107.000000 
	C301.000000,171.999985 301.000000,236.499985 301.000000,301.000000 
	C201.000031,301.000000 101.000061,301.000000 1.000066,301.000000 
	C1.000044,201.000046 1.000044,101.000092 1.000022,1.000107 
	C100.999939,1.000071 200.999878,1.000071 300.999908,1.000036 
	C301.000000,36.166668 301.000000,71.333336 301.000000,107.000000 
M292.998779,67.500000 
	C292.998779,50.674335 293.000854,33.848671 292.997894,17.023008 
	C292.996490,9.012474 292.992157,9.005806 285.155518,9.005666 
	C195.694977,9.004063 106.234451,9.004009 16.773914,9.005779 
	C9.014287,9.005933 9.004697,9.013309 9.004503,16.595547 
	C9.002214,106.056076 9.002519,195.516617 9.003869,284.977142 
	C9.003990,292.987335 9.009578,292.994171 16.846369,292.994324 
	C106.306900,292.995972 195.767441,292.996063 285.227966,292.994293 
	C292.987427,292.994110 292.997040,292.986694 292.997284,285.404327 
	C292.999786,213.102890 292.998779,140.801437 292.998779,67.500000 
z"/>
<path fill="#222222" opacity="1.000000" stroke="none" 
	d="
M292.998779,68.000000 
	C292.998779,140.801437 292.999786,213.102890 292.997284,285.404327 
	C292.997040,292.986694 292.987427,292.994110 285.227966,292.994293 
	C195.767441,292.996063 106.306900,292.995972 16.846369,292.994324 
	C9.009578,292.994171 9.003990,292.987335 9.003869,284.977142 
	C9.002519,195.516617 9.002214,106.056076 9.004503,16.595547 
	C9.004697,9.013309 9.014287,9.005933 16.773914,9.005779 
	C106.234451,9.004009 195.694977,9.004063 285.155518,9.005666 
	C292.992157,9.005806 292.996490,9.012474 292.997894,17.023008 
	C293.000854,33.848671 292.998779,50.674335 292.998779,68.000000 
M150.612518,62.114876 
	C149.222336,60.928734 147.827026,59.748539 146.442780,58.555511 
	C135.162781,48.833714 123.420219,39.850586 108.823631,35.581501 
	C90.005196,30.077654 76.089928,37.684074 72.142860,56.851460 
	C70.293343,65.832947 70.396713,75.353165 70.687195,84.595520 
	C70.919472,91.985466 72.773170,99.324448 73.950630,106.967926 
	C72.027687,107.618477 70.162506,108.231728 68.309288,108.879234 
	C53.139854,114.179291 38.343273,120.215714 27.170563,132.411774 
	C16.072218,144.526672 16.528181,159.016693 28.145758,170.697311 
	C36.383015,178.979279 46.243385,184.751617 57.024677,189.018738 
	C62.698196,191.264236 68.448181,193.316544 74.278732,195.499176 
	C73.928505,197.132889 73.642784,198.424515 73.375282,199.719894 
	C70.498856,213.648804 68.710663,227.618484 70.991501,241.862030 
	C74.432434,263.350189 89.421204,272.710541 110.126518,265.948792 
	C114.522522,264.513214 119.026489,262.851990 122.853462,260.339355 
	C132.538467,253.980621 141.866928,247.078873 151.663712,240.164886 
	C152.276947,240.699097 153.383820,241.666046 154.493591,242.629669 
	C165.856384,252.496078 177.630310,261.685059 192.339798,266.196045 
	C211.785431,272.159485 225.976715,264.262939 229.894440,244.397415 
	C231.420303,236.660248 231.647629,228.511612 231.297058,220.602219 
	C230.924805,212.203720 229.165070,203.866699 227.972717,195.223663 
	C231.034088,194.128876 234.138718,193.006119 237.251831,191.907425 
	C250.869720,187.101349 263.677002,180.890945 273.998169,170.457886 
	C284.350555,159.993256 285.490692,146.566544 276.747498,135.294556 
	C274.120483,131.907745 271.209137,128.322113 267.620239,126.182625 
	C258.379364,120.673737 248.759964,115.776688 239.136475,110.944534 
	C235.505035,109.121124 231.446350,108.148598 227.604019,106.795799 
	C228.645935,101.056480 229.769592,95.850037 230.511581,90.589745 
	C232.506241,76.448608 233.183792,62.357513 227.198395,48.856407 
	C222.747772,38.817238 214.345856,33.181152 203.468796,34.055470 
	C197.449585,34.539299 191.321060,36.154026 185.681961,38.375999 
	C172.471542,43.581291 161.909119,52.889187 150.612518,62.114876 
z"/>
<path fill="#01D5FB" opacity="1.000000" stroke="none" 
	d="
M150.976990,62.093266 
	C161.909119,52.889187 172.471542,43.581291 185.681961,38.375999 
	C191.321060,36.154026 197.449585,34.539299 203.468796,34.055470 
	C214.345856,33.181152 222.747772,38.817238 227.198395,48.856407 
	C233.183792,62.357513 232.506241,76.448608 230.511581,90.589745 
	C229.769592,95.850037 228.645935,101.056480 227.604019,106.795799 
	C231.446350,108.148598 235.505035,109.121124 239.136475,110.944534 
	C248.759964,115.776688 258.379364,120.673737 267.620239,126.182625 
	C271.209137,128.322113 274.120483,131.907745 276.747498,135.294556 
	C285.490692,146.566544 284.350555,159.993256 273.998169,170.457886 
	C263.677002,180.890945 250.869720,187.101349 237.251831,191.907425 
	C234.138718,193.006119 231.034088,194.128876 227.972717,195.223663 
	C229.165070,203.866699 230.924805,212.203720 231.297058,220.602219 
	C231.647629,228.511612 231.420303,236.660248 229.894440,244.397415 
	C225.976715,264.262939 211.785431,272.159485 192.339798,266.196045 
	C177.630310,261.685059 165.856384,252.496078 154.493591,242.629669 
	C153.383820,241.666046 152.276947,240.699097 151.663712,240.164886 
	C141.866928,247.078873 132.538467,253.980621 122.853462,260.339355 
	C119.026489,262.851990 114.522522,264.513214 110.126518,265.948792 
	C89.421204,272.710541 74.432434,263.350189 70.991501,241.862030 
	C68.710663,227.618484 70.498856,213.648804 73.375282,199.719894 
	C73.642784,198.424515 73.928505,197.132889 74.278732,195.499176 
	C68.448181,193.316544 62.698196,191.264236 57.024677,189.018738 
	C46.243385,184.751617 36.383015,178.979279 28.145758,170.697311 
	C16.528181,159.016693 16.072218,144.526672 27.170563,132.411774 
	C38.343273,120.215714 53.139854,114.179291 68.309288,108.879234 
	C70.162506,108.231728 72.027687,107.618477 73.950630,106.967926 
	C72.773170,99.324448 70.919472,91.985466 70.687195,84.595520 
	C70.396713,75.353165 70.293343,65.832947 72.142860,56.851460 
	C76.089928,37.684074 90.005196,30.077654 108.823631,35.581501 
	C123.420219,39.850586 135.162781,48.833714 146.442780,58.555511 
	C147.827026,59.748539 149.222336,60.928734 150.976990,62.093266 
M194.841034,142.739822 
	C188.901550,132.745255 183.076721,122.678940 176.910583,112.826218 
	C175.873413,111.168945 173.380432,109.466347 171.526917,109.428932 
	C157.728043,109.150360 143.919388,109.195869 130.118073,109.412498 
	C128.475906,109.438271 126.167725,110.694473 125.339752,112.080269 
	C118.187035,124.052048 111.211143,136.133499 104.456421,148.333878 
	C103.621635,149.841660 103.677422,152.638519 104.530769,154.158630 
	C111.194542,166.029297 118.048546,177.798401 125.144371,189.415283 
	C126.135071,191.037231 128.745636,192.560715 130.637054,192.598618 
	C144.101257,192.868423 157.577652,192.907486 171.038666,192.565903 
	C173.161972,192.512009 176.036346,190.661072 177.184387,188.793350 
	C183.440521,178.615417 188.979874,167.992142 195.355225,157.894196 
	C198.665665,152.650772 198.686142,148.205582 194.841034,142.739822 
M170.401062,84.101448 
	C173.464005,88.038948 176.449051,92.041176 179.636078,95.875557 
	C180.626892,97.067657 182.065369,98.427429 183.468185,98.651688 
	C194.420990,100.402687 205.415070,101.895462 216.814148,103.527794 
	C217.722778,99.387466 218.872925,95.066833 219.594910,90.675797 
	C221.411102,79.629662 222.626312,68.521645 218.995544,57.602184 
	C215.782776,47.939892 208.319626,43.514557 198.418716,45.515736 
	C182.150391,48.803890 170.540970,59.569271 158.718689,70.520409 
	C162.590607,75.015068 166.268814,79.284843 170.401062,84.101448 
M140.982513,233.560333 
	C142.755356,232.244919 142.982864,231.148071 141.339432,229.216141 
	C134.760330,221.482025 128.450577,213.519318 121.950165,205.716995 
	C121.179138,204.791565 119.917168,203.911850 118.765907,203.722870 
	C107.652298,201.898590 96.513657,200.226822 85.082451,198.465271 
	C81.550819,211.405746 79.215866,224.661270 81.243263,238.225861 
	C83.640617,254.265610 93.911362,260.375549 109.273735,255.119736 
	C121.533623,250.925354 131.161270,242.674805 140.982513,233.560333 
M128.321762,87.828514 
	C133.172852,82.134483 138.023926,76.440460 143.039230,70.553680 
	C133.457382,61.022621 123.317184,52.492630 110.779495,47.402081 
	C95.277359,41.107906 84.457710,47.048996 81.359299,63.358200 
	C80.895676,65.798599 80.742851,68.319801 80.674835,70.809868 
	C80.365364,82.140060 81.986984,93.183411 85.246773,103.865601 
	C92.837196,102.525871 99.845810,100.472023 106.913651,100.242538 
	C116.316208,99.937256 123.593079,97.132645 128.321762,87.828514 
M81.812996,171.320282 
	C84.136391,165.631149 86.513496,159.962936 88.742188,154.236938 
	C89.245346,152.944229 89.803864,151.233093 89.366989,150.083008 
	C85.315948,139.418686 81.052406,128.835083 76.689331,117.821075 
	C72.182655,119.249077 67.508217,120.412933 63.083591,122.196518 
	C53.039772,126.245247 43.044075,130.523209 35.760540,139.041336 
	C29.423836,146.452133 29.043358,154.745972 35.411224,162.107590 
	C38.938408,166.185242 43.297142,169.808365 47.895138,172.638809 
	C56.933022,178.202423 66.850639,181.856384 77.344887,184.286285 
	C78.846107,179.877930 80.180069,175.960724 81.812996,171.320282 
M193.280670,255.446655 
	C207.826385,259.360596 216.353806,255.139191 219.595535,241.768219 
	C223.184052,226.966995 220.305481,212.506104 216.722412,198.411591 
	C205.451309,200.152344 194.634705,201.787674 183.837006,203.539642 
	C182.627197,203.735931 181.158966,204.294739 180.428970,205.189789 
	C173.302017,213.927811 166.306641,222.773132 159.097229,231.809265 
	C168.930908,241.240326 179.225342,250.322754 193.280670,255.446655 
M239.166718,179.765045 
	C244.967346,176.890167 250.882889,174.219955 256.520508,171.054749 
	C259.374603,169.452347 261.963684,167.186478 264.264526,164.823273 
	C274.096252,154.725037 272.900726,143.567520 260.901886,134.195709 
	C250.225555,125.856880 237.777466,121.323868 224.936813,117.889771 
	C220.680466,128.587585 216.484634,139.033707 212.416336,149.529251 
	C212.053055,150.466492 212.254562,151.826431 212.638260,152.818054 
	C216.646713,163.177582 220.746048,173.501923 225.024139,184.353271 
	C229.344711,182.948822 233.884521,181.473114 239.166718,179.765045 
M92.128883,126.324623 
	C93.530525,129.743408 94.932159,133.162201 96.633980,137.313171 
	C101.803291,128.234894 106.546249,119.905365 111.736778,110.789825 
	C103.319801,112.226952 95.933525,113.488098 88.173660,114.813026 
	C89.635063,119.015053 90.775864,122.295242 92.128883,126.324623 
M101.585381,173.877228 
	C100.001404,171.139938 98.417427,168.402649 96.390526,164.899948 
	C93.483727,172.821426 90.943954,179.742691 88.147293,187.364059 
	C96.365120,188.694183 103.725349,189.885513 112.067932,191.235840 
	C108.295151,184.979034 105.133965,179.736511 101.585381,173.877228 
M204.444946,188.983871 
	C207.313232,188.363251 210.181503,187.742615 213.657013,186.990585 
	C210.840561,179.466110 208.227020,172.483719 205.281433,164.614273 
	C199.993057,173.933731 195.286362,182.228119 190.290878,191.031433 
	C195.089905,190.328079 199.339478,189.705246 204.444946,188.983871 
M203.396942,134.064163 
	C203.990463,134.714767 204.583984,135.365372 205.597382,136.476227 
	C208.350906,128.994308 210.885529,122.107170 213.611084,114.701256 
	C205.387726,113.352753 198.089798,112.156013 190.126389,110.850143 
	C194.681854,118.806412 198.863541,126.109871 203.396942,134.064163 
M142.729004,213.760971 
	C145.376373,216.879410 148.023743,219.997833 151.058411,223.572449 
	C156.184830,217.260529 160.870926,211.490738 165.931458,205.259949 
	C155.417480,205.259949 146.084747,205.259949 136.101242,205.259949 
	C138.442139,208.277771 140.356934,210.746246 142.729004,213.760971 
M154.112701,82.481232 
	C153.047928,81.353523 151.983139,80.225807 150.662323,78.826927 
	C145.656921,84.975418 141.109848,90.560890 136.110107,96.702415 
	C146.382034,96.702415 155.641403,96.702415 165.758606,96.702415 
	C161.668701,91.690025 158.120697,87.341782 154.112701,82.481232 
z"/>
<path fill="#222425" opacity="1.000000" stroke="none" 
	d="
M194.990112,143.087158 
	C198.686142,148.205582 198.665665,152.650772 195.355225,157.894196 
	C188.979874,167.992142 183.440521,178.615417 177.184387,188.793350 
	C176.036346,190.661072 173.161972,192.512009 171.038666,192.565903 
	C157.577652,192.907486 144.101257,192.868423 130.637054,192.598618 
	C128.745636,192.560715 126.135071,191.037231 125.144371,189.415283 
	C118.048546,177.798401 111.194542,166.029297 104.530769,154.158630 
	C103.677422,152.638519 103.621635,149.841660 104.456421,148.333878 
	C111.211143,136.133499 118.187035,124.052048 125.339752,112.080269 
	C126.167725,110.694473 128.475906,109.438271 130.118073,109.412498 
	C143.919388,109.195869 157.728043,109.150360 171.526917,109.428932 
	C173.380432,109.466347 175.873413,111.168945 176.910583,112.826218 
	C183.076721,122.678940 188.901550,132.745255 194.990112,143.087158 
M130.953735,163.401077 
	C138.663376,173.815460 150.458344,177.307953 160.665741,172.198792 
	C171.177765,166.937164 176.554459,155.600006 173.428314,144.743835 
	C170.822739,135.695496 164.868958,129.854568 155.570938,127.939941 
	C145.848312,125.937889 137.761505,129.086258 131.886627,137.003937 
	C125.829895,145.166702 125.748604,153.903687 130.953735,163.401077 
z"/>
<path fill="#222424" opacity="1.000000" stroke="none" 
	d="
M170.174042,83.828033 
	C166.268814,79.284843 162.590607,75.015068 158.718689,70.520409 
	C170.540970,59.569271 182.150391,48.803890 198.418716,45.515736 
	C208.319626,43.514557 215.782776,47.939892 218.995544,57.602184 
	C222.626312,68.521645 221.411102,79.629662 219.594910,90.675797 
	C218.872925,95.066833 217.722778,99.387466 216.814148,103.527794 
	C205.415070,101.895462 194.420990,100.402687 183.468185,98.651688 
	C182.065369,98.427429 180.626892,97.067657 179.636078,95.875557 
	C176.449051,92.041176 173.464005,88.038948 170.174042,83.828033 
z"/>
<path fill="#222324" opacity="1.000000" stroke="none" 
	d="
M140.728210,233.797455 
	C131.161270,242.674805 121.533623,250.925354 109.273735,255.119736 
	C93.911362,260.375549 83.640617,254.265610 81.243263,238.225861 
	C79.215866,224.661270 81.550819,211.405746 85.082451,198.465271 
	C96.513657,200.226822 107.652298,201.898590 118.765907,203.722870 
	C119.917168,203.911850 121.179138,204.791565 121.950165,205.716995 
	C128.450577,213.519318 134.760330,221.482025 141.339432,229.216141 
	C142.982864,231.148071 142.755356,232.244919 140.728210,233.797455 
z"/>
<path fill="#222424" opacity="1.000000" stroke="none" 
	d="
M128.115219,88.118225 
	C123.593079,97.132645 116.316208,99.937256 106.913651,100.242538 
	C99.845810,100.472023 92.837196,102.525871 85.246773,103.865601 
	C81.986984,93.183411 80.365364,82.140060 80.674835,70.809868 
	C80.742851,68.319801 80.895676,65.798599 81.359299,63.358200 
	C84.457710,47.048996 95.277359,41.107906 110.779495,47.402081 
	C123.317184,52.492630 133.457382,61.022621 143.039230,70.553680 
	C138.023926,76.440460 133.172852,82.134483 128.115219,88.118225 
z"/>
<path fill="#222424" opacity="1.000000" stroke="none" 
	d="
M81.663513,171.681915 
	C80.180069,175.960724 78.846107,179.877930 77.344887,184.286285 
	C66.850639,181.856384 56.933022,178.202423 47.895138,172.638809 
	C43.297142,169.808365 38.938408,166.185242 35.411224,162.107590 
	C29.043358,154.745972 29.423836,146.452133 35.760540,139.041336 
	C43.044075,130.523209 53.039772,126.245247 63.083591,122.196518 
	C67.508217,120.412933 72.182655,119.249077 76.689331,117.821075 
	C81.052406,128.835083 85.315948,139.418686 89.366989,150.083008 
	C89.803864,151.233093 89.245346,152.944229 88.742188,154.236938 
	C86.513496,159.962936 84.136391,165.631149 81.663513,171.681915 
z"/>
<path fill="#222424" opacity="1.000000" stroke="none" 
	d="
M192.905365,255.303375 
	C179.225342,250.322754 168.930908,241.240326 159.097229,231.809265 
	C166.306641,222.773132 173.302017,213.927811 180.428970,205.189789 
	C181.158966,204.294739 182.627197,203.735931 183.837006,203.539642 
	C194.634705,201.787674 205.451309,200.152344 216.722412,198.411591 
	C220.305481,212.506104 223.184052,226.966995 219.595535,241.768219 
	C216.353806,255.139191 207.826385,259.360596 192.905365,255.303375 
z"/>
<path fill="#222424" opacity="1.000000" stroke="none" 
	d="
M238.795532,179.881226 
	C233.884521,181.473114 229.344711,182.948822 225.024139,184.353271 
	C220.746048,173.501923 216.646713,163.177582 212.638260,152.818054 
	C212.254562,151.826431 212.053055,150.466492 212.416336,149.529251 
	C216.484634,139.033707 220.680466,128.587585 224.936813,117.889771 
	C237.777466,121.323868 250.225555,125.856880 260.901886,134.195709 
	C272.900726,143.567520 274.096252,154.725037 264.264526,164.823273 
	C261.963684,167.186478 259.374603,169.452347 256.520508,171.054749 
	C250.882889,174.219955 244.967346,176.890167 238.795532,179.881226 
z"/>
<path fill="#21292A" opacity="1.000000" stroke="none" 
	d="
M92.022774,125.950027 
	C90.775864,122.295242 89.635063,119.015053 88.173660,114.813026 
	C95.933525,113.488098 103.319801,112.226952 111.736778,110.789825 
	C106.546249,119.905365 101.803291,128.234894 96.633980,137.313171 
	C94.932159,133.162201 93.530525,129.743408 92.022774,125.950027 
z"/>
<path fill="#21282A" opacity="1.000000" stroke="none" 
	d="
M101.779083,174.185608 
	C105.133965,179.736511 108.295151,184.979034 112.067932,191.235840 
	C103.725349,189.885513 96.365120,188.694183 88.147293,187.364059 
	C90.943954,179.742691 93.483727,172.821426 96.390526,164.899948 
	C98.417427,168.402649 100.001404,171.139938 101.779083,174.185608 
z"/>
<path fill="#21282A" opacity="1.000000" stroke="none" 
	d="
M204.016998,189.033142 
	C199.339478,189.705246 195.089905,190.328079 190.290878,191.031433 
	C195.286362,182.228119 199.993057,173.933731 205.281433,164.614273 
	C208.227020,172.483719 210.840561,179.466110 213.657013,186.990585 
	C210.181503,187.742615 207.313232,188.363251 204.016998,189.033142 
z"/>
<path fill="#212829" opacity="1.000000" stroke="none" 
	d="
M203.221085,133.738739 
	C198.863541,126.109871 194.681854,118.806412 190.126389,110.850143 
	C198.089798,112.156013 205.387726,113.352753 213.611084,114.701256 
	C210.885529,122.107170 208.350906,128.994308 205.597382,136.476227 
	C204.583984,135.365372 203.990463,134.714767 203.221085,133.738739 
z"/>
<path fill="#212626" opacity="1.000000" stroke="none" 
	d="
M142.500366,213.487854 
	C140.356934,210.746246 138.442139,208.277771 136.101242,205.259949 
	C146.084747,205.259949 155.417480,205.259949 165.931458,205.259949 
	C160.870926,211.490738 156.184830,217.260529 151.058411,223.572449 
	C148.023743,219.997833 145.376373,216.879410 142.500366,213.487854 
z"/>
<path fill="#212627" opacity="1.000000" stroke="none" 
	d="
M154.342712,82.737381 
	C158.120697,87.341782 161.668701,91.690025 165.758606,96.702415 
	C155.641403,96.702415 146.382034,96.702415 136.110107,96.702415 
	C141.109848,90.560890 145.656921,84.975418 150.662323,78.826927 
	C151.983139,80.225807 153.047928,81.353523 154.342712,82.737381 
z"/>
<path fill="#00D6FD" opacity="1.000000" stroke="none" 
	d="
M130.774200,163.076630 
	C125.748604,153.903687 125.829895,145.166702 131.886627,137.003937 
	C137.761505,129.086258 145.848312,125.937889 155.570938,127.939941 
	C164.868958,129.854568 170.822739,135.695496 173.428314,144.743835 
	C176.554459,155.600006 171.177765,166.937164 160.665741,172.198792 
	C150.458344,177.307953 138.663376,173.815460 130.774200,163.076630 
z"/>
</svg>