<svg version="1.1" id="Layer_1" xmlns="http://www.w3.org/2000/svg" xmlns:xlink="http://www.w3.org/1999/xlink" x="0px" y="0px"
	 width="100%" viewBox="0 0 300 300" enable-background="new 0 0 300 300" xml:space="preserve">
<path fill="#020202" opacity="1.000000" stroke="none" 
	d="
M134.000000,0.999999 
	C144.020889,1.000000 154.041794,1.000000 164.681870,1.384623 
	C170.055450,2.511215 174.826126,3.162034 179.561737,4.009046 
	C236.267914,14.151512 284.712494,60.696411 297.092041,116.903610 
	C298.419403,122.930298 299.698517,128.967621 301.000000,135.000000 
	C301.000000,145.687561 301.000000,156.375122 300.615540,167.662659 
	C299.332336,173.327682 298.768188,178.479279 297.484009,183.444656 
	C281.332611,245.894302 241.300507,283.685883 178.740036,298.097534 
	C174.179184,299.148193 169.580887,300.036285 165.000000,301.000000 
	C154.979111,301.000000 144.958206,301.000000 134.327759,300.620331 
	C131.760574,299.874603 129.810455,299.461243 127.844238,299.149353 
	C66.370430,289.396881 18.625511,244.806213 4.679546,184.106430 
	C3.446395,178.739151 2.226207,173.368881 1.000000,168.000000 
	C1.000000,156.979111 1.000000,145.958206 1.381103,134.341156 
	C2.127789,131.787842 2.554846,129.839920 2.850035,127.872223 
	C12.198684,65.554947 60.178375,15.551780 121.767082,3.892618 
	C125.879860,3.114042 129.923950,1.972644 134.000000,0.999999 
M236.482056,67.017929 
	C206.579865,38.414810 171.289978,26.011292 130.191696,32.936592 
	C64.804588,43.954704 21.392939,106.078537 32.826542,171.518631 
	C44.618172,239.007904 109.483612,283.126007 176.051758,267.940521 
	C221.018387,257.682770 252.155212,230.226028 265.576843,185.974487 
	C279.025238,141.634521 268.841705,101.613953 236.482056,67.017929 
z"/>
<path fill="#FEFEFE" opacity="1.000000" stroke="none" 
	d="
M165.468658,301.000000 
	C169.580887,300.036285 174.179184,299.148193 178.740036,298.097534 
	C241.300507,283.685883 281.332611,245.894302 297.484009,183.444656 
	C298.768188,178.479279 299.332336,173.327682 300.615540,168.131317 
	C301.000000,212.261139 301.000000,256.522278 301.000000,301.000000 
	C255.979340,301.000000 210.958328,301.000000 165.468658,301.000000 
z"/>
<path fill="#FEFEFE" opacity="1.000000" stroke="none" 
	d="
M301.000000,134.531342 
	C299.698517,128.967621 298.419403,122.930298 297.092041,116.903610 
	C284.712494,60.696411 236.267914,14.151512 179.561737,4.009046 
	C174.826126,3.162034 170.055450,2.511215 165.150528,1.384623 
	C210.259781,1.000000 255.519547,1.000000 301.000000,1.000000 
	C301.000000,45.353985 301.000000,89.708336 301.000000,134.531342 
z"/>
<path fill="#FEFEFE" opacity="1.000000" stroke="none" 
	d="
M133.531342,0.999999 
	C129.923950,1.972644 125.879860,3.114042 121.767082,3.892618 
	C60.178375,15.551780 12.198684,65.554947 2.850035,127.872223 
	C2.554846,129.839920 2.127789,131.787842 1.381103,133.872498 
	C1.000000,89.739677 1.000000,45.479362 1.000000,1.000000 
	C45.020653,1.000000 89.041664,1.000000 133.531342,0.999999 
z"/>
<path fill="#FEFEFE" opacity="1.000000" stroke="none" 
	d="
M1.000000,168.468658 
	C2.226207,173.368881 3.446395,178.739151 4.679546,184.106430 
	C18.625511,244.806213 66.370430,289.396881 127.844238,299.149353 
	C129.810455,299.461243 131.760574,299.874603 133.859100,300.620331 
	C89.739677,301.000000 45.479362,301.000000 1.000000,301.000000 
	C1.000000,256.979340 1.000000,212.958328 1.000000,168.468658 
z"/>
<path fill="#FEFEFE" opacity="1.000000" stroke="none" 
	d="
M236.734772,67.264648 
	C268.841705,101.613953 279.025238,141.634521 265.576843,185.974487 
	C252.155212,230.226028 221.018387,257.682770 176.051758,267.940521 
	C109.483612,283.126007 44.618172,239.007904 32.826542,171.518631 
	C21.392939,106.078537 64.804588,43.954704 130.191696,32.936592 
	C171.289978,26.011292 206.579865,38.414810 236.734772,67.264648 
M235.042480,182.493027 
	C226.375000,169.512558 217.763260,156.494171 208.984589,143.589340 
	C207.538788,141.463989 205.600174,139.486206 203.480774,138.038193 
	C192.375961,130.451202 181.216522,122.936844 169.897873,115.674980 
	C166.851013,113.720169 165.820740,111.628075 165.909195,108.055573 
	C166.171463,97.464905 166.003082,86.863571 166.003082,76.240295 
	C155.760468,76.240295 146.018646,76.240295 135.997086,76.240295 
	C135.997086,87.271568 135.888763,98.065987 136.067307,108.855652 
	C136.116776,111.844307 135.248276,113.619453 132.680222,115.280159 
	C121.107704,122.763824 109.680664,130.473267 98.240242,138.159470 
	C96.747040,139.162674 95.136246,140.271347 94.161057,141.721878 
	C83.974960,156.872940 73.907608,172.103821 63.565201,187.677246 
	C71.900795,193.236816 80.120094,198.718826 88.463089,204.283325 
	C94.351929,195.506775 100.043671,187.023956 106.013443,178.126770 
	C112.074524,187.170700 117.759201,195.652985 123.558647,204.306519 
	C131.939911,198.703583 140.058807,193.276047 148.442627,187.671402 
	C141.154999,176.705307 134.050491,166.014755 126.835365,155.157745 
	C135.139908,149.625961 143.114349,144.314056 151.042953,139.032684 
	C159.280777,144.548859 167.223389,149.867325 175.168213,155.187286 
	C167.827408,166.218033 160.773560,176.817566 153.555008,187.664597 
	C162.001251,193.306076 170.122208,198.730301 178.452118,204.294083 
	C184.262421,195.628357 189.950836,187.144440 195.999939,178.122574 
	C201.999115,187.069611 207.691879,195.559677 213.550049,204.296448 
	C221.910156,198.721146 230.129761,193.239548 238.423416,187.708588 
	C237.242508,185.873291 236.347855,184.482895 235.042480,182.493027 
z"/>
<path fill="#010101" opacity="1.000000" stroke="none" 
	d="
M235.247833,182.792755 
	C236.347855,184.482895 237.242508,185.873291 238.423416,187.708588 
	C230.129761,193.239548 221.910156,198.721146 213.550049,204.296448 
	C207.691879,195.559677 201.999115,187.069611 195.999939,178.122574 
	C189.950836,187.144440 184.262421,195.628357 178.452118,204.294083 
	C170.122208,198.730301 162.001251,193.306076 153.555008,187.664597 
	C160.773560,176.817566 167.827408,166.218033 175.168213,155.187286 
	C167.223389,149.867325 159.280777,144.548859 151.042953,139.032684 
	C143.114349,144.314056 135.139908,149.625961 126.835365,155.157745 
	C134.050491,166.014755 141.154999,176.705307 148.442627,187.671402 
	C140.058807,193.276047 131.939911,198.703583 123.558647,204.306519 
	C117.759201,195.652985 112.074524,187.170700 106.013443,178.126770 
	C100.043671,187.023956 94.351929,195.506775 88.463089,204.283325 
	C80.120094,198.718826 71.900795,193.236816 63.565201,187.677246 
	C73.907608,172.103821 83.974960,156.872940 94.161057,141.721878 
	C95.136246,140.271347 96.747040,139.162674 98.240242,138.159470 
	C109.680664,130.473267 121.107704,122.763824 132.680222,115.280159 
	C135.248276,113.619453 136.116776,111.844307 136.067307,108.855652 
	C135.888763,98.065987 135.997086,87.271568 135.997086,76.240295 
	C146.018646,76.240295 155.760468,76.240295 166.003082,76.240295 
	C166.003082,86.863571 166.171463,97.464905 165.909195,108.055573 
	C165.820740,111.628075 166.851013,113.720169 169.897873,115.674980 
	C181.216522,122.936844 192.375961,130.451202 203.480774,138.038193 
	C205.600174,139.486206 207.538788,141.463989 208.984589,143.589340 
	C217.763260,156.494171 226.375000,169.512558 235.247833,182.792755 
z"/>
</svg>