<svg version="1.1" id="Layer_1" xmlns="http://www.w3.org/2000/svg" xmlns:xlink="http://www.w3.org/1999/xlink" x="0px" y="0px"
	 width="100%" viewBox="0 0 640 640" enable-background="new 0 0 640 640" xml:space="preserve">
<path fill="#EF5134" opacity="1.000000" stroke="none" 
	d="
M289.000000,1.000005 
	C311.020905,1.000000 333.041779,1.000000 355.676971,1.357029 
	C357.834656,2.219696 359.344025,2.910378 360.926880,3.201239 
	C372.034485,5.242301 383.276672,6.692774 394.254669,9.273069 
	C444.014343,20.968727 488.478394,43.395065 527.576660,76.317688 
	C559.390686,103.106697 584.955505,134.998184 604.373291,171.771530 
	C622.805969,206.679291 634.370239,243.746582 638.988892,282.976318 
	C639.153748,284.377045 640.307251,285.661407 641.000000,287.000000 
	C641.000000,309.020905 641.000000,331.041779 640.612427,353.641876 
	C639.812439,355.081024 639.184875,355.901703 639.019409,356.806824 
	C636.158020,372.461243 634.400574,388.402771 630.347351,403.738586 
	C616.031250,457.905487 588.879456,504.995117 549.799744,545.154419 
	C528.548584,566.992737 504.386719,585.085510 477.735687,600.418945 
	C475.520355,601.612305 473.625946,602.727234 471.535217,603.883179 
	C471.338928,603.924133 471.035797,604.186768 470.681396,604.224121 
	C466.665833,606.215454 463.004639,608.169495 459.252136,610.107788 
	C459.160828,610.092102 459.076508,610.257080 458.721741,610.302795 
	C453.581512,612.566467 448.796082,614.784424 443.605164,617.074951 
	C442.726562,617.419800 442.253479,617.692017 441.696045,617.881348 
	C441.611694,617.798462 441.354462,618.112610 441.267639,618.090088 
	C441.180786,618.067566 441.091003,618.222900 440.718384,618.239136 
	C431.273865,621.509644 422.201965,624.763916 412.832397,628.029907 
	C412.353088,628.121948 412.171448,628.202271 411.612488,628.281616 
	C408.167908,629.217773 405.100616,630.154907 401.659302,631.056274 
	C399.850769,631.432129 398.416290,631.843811 396.727417,632.238403 
	C396.209259,632.418030 395.945465,632.614807 395.344818,632.794983 
	C394.346985,632.900146 393.686005,633.021973 392.621704,633.121033 
	C386.480042,634.406616 380.741730,635.714905 374.631897,636.994202 
	C373.521210,637.040771 372.782013,637.116333 371.721649,637.133057 
	C370.605164,637.392883 369.809875,637.711609 368.581635,638.009766 
	C366.737549,638.224854 365.326385,638.460449 363.722534,638.605591 
	C363.215637,638.500488 362.971802,638.624329 362.432983,639.027344 
	C359.378448,639.778625 356.689209,640.389282 354.000000,641.000000 
	C331.979095,641.000000 309.958221,641.000000 287.310059,640.621643 
	C283.150116,639.530151 279.615845,638.825073 276.085144,638.102417 
	C262.756714,635.374390 249.209274,633.428650 236.138809,629.776428 
	C170.069107,611.315247 115.162804,575.505249 71.958183,522.142273 
	C34.903229,476.374817 12.319590,424.206604 3.982841,365.887329 
	C3.080970,359.578339 1.998629,353.295166 1.000000,347.000000 
	C1.000000,326.645782 1.000000,306.291534 1.340455,285.341858 
	C1.782733,283.801392 1.884557,282.856415 2.140461,281.645569 
	C2.706355,280.273926 3.118168,279.168152 3.671958,277.693329 
	C3.850106,276.539368 3.886278,275.754517 4.072553,274.611633 
	C5.132087,268.503113 6.041518,262.752563 7.048790,256.738403 
	C7.161144,256.102356 7.175657,255.729965 7.388046,255.185425 
	C7.621902,254.675720 7.657885,254.338181 7.815092,253.680023 
	C7.950609,252.904541 7.964900,252.449707 8.177933,251.734985 
	C8.545143,250.643616 8.713612,249.812149 8.978805,248.693604 
	C9.093634,248.005051 9.111737,247.603577 9.347158,246.931763 
	C9.931508,245.086502 10.298541,243.511581 10.791142,241.625092 
	C10.919485,240.867310 10.922262,240.421066 11.118444,239.671875 
	C12.059604,236.559540 12.807358,233.750183 13.704281,230.635971 
	C13.913502,229.884491 13.973551,229.437836 14.274106,228.733398 
	C14.712934,227.331940 14.911256,226.188293 15.074795,225.043854 
	C15.040012,225.043045 15.075574,225.102844 15.297173,225.003723 
	C15.807474,224.662872 15.879497,224.368210 15.854116,223.739899 
	C15.975950,223.255890 15.978506,223.052582 16.162907,222.669159 
	C16.448341,222.000320 16.551931,221.511581 16.790607,220.706879 
	C16.973190,219.936279 17.020691,219.481689 17.327597,218.787155 
	C19.987869,212.026749 22.388739,205.506287 24.913456,198.771606 
	C25.037304,198.557404 25.073561,198.063873 25.319738,197.825928 
	C26.071615,196.076660 26.577314,194.565369 27.041523,193.041809 
	C27.000031,193.029556 27.071415,193.079102 27.346817,192.876740 
	C28.710772,190.113159 29.799326,187.551941 30.992905,184.809265 
	C31.097927,184.627777 31.126417,184.209381 31.343365,184.088181 
	C31.799379,183.696487 31.877066,183.385666 31.932249,182.852783 
	C32.071125,182.671066 32.161072,182.222565 32.431412,182.029846 
	C33.407692,180.211411 34.113636,178.585663 34.949596,176.792206 
	C35.079613,176.624481 35.127182,176.202713 35.375648,176.009644 
	C36.037075,174.868866 36.450031,173.921173 36.986084,172.827271 
	C37.109177,172.681061 37.155106,172.301575 37.376213,172.154388 
	C37.687542,171.674393 37.777763,171.341599 38.077461,170.791016 
	C38.510166,170.022873 38.733391,169.472504 39.232906,168.734665 
	C40.626682,166.353180 41.744175,164.159164 43.071289,161.691681 
	C54.266563,145.774078 64.278160,129.323807 76.428062,114.643234 
	C107.701935,76.855492 146.226730,48.215847 191.112656,28.331738 
	C221.263794,14.975015 252.652023,6.060297 285.591400,2.966408 
	C286.778687,2.854891 287.866058,1.679555 289.000000,1.000005 
M297.099579,389.555481 
	C297.316711,389.230835 297.533844,388.906189 297.520599,388.526550 
	C297.520599,388.526550 297.572144,388.295349 298.088501,388.642639 
	C298.622742,387.650421 299.156982,386.658203 299.766479,385.785492 
	C299.766479,385.785492 299.647369,385.709656 300.386902,385.704590 
	C301.766602,384.291229 303.146332,382.877899 304.764099,381.581512 
	C304.764099,381.581512 304.508240,381.511536 305.334320,381.620575 
	C310.298676,381.574432 312.129639,379.307465 312.099457,374.145386 
	C311.901031,340.177094 312.007477,306.207001 311.994446,272.237518 
	C311.991974,265.738251 311.398468,265.177979 304.219543,264.881714 
	C293.759094,256.557068 289.325134,246.164062 292.763855,232.789764 
	C293.267975,230.829086 293.041687,227.699722 291.802094,226.421631 
	C277.661041,211.841095 263.257568,197.515060 248.726929,182.923004 
	C247.108398,184.449417 245.768921,185.651413 244.497131,186.921173 
	C223.273697,208.110596 202.055634,229.305405 180.842880,250.505524 
	C164.109619,267.228821 147.342270,283.918243 130.671112,300.703247 
	C118.201225,313.258240 118.143326,327.574432 130.483719,340.304047 
	C136.977158,347.002289 143.669693,353.507446 150.266159,360.105896 
	C189.254913,399.106445 228.231400,438.119263 267.235565,477.104370 
	C279.607391,489.470184 291.820496,502.009430 304.561188,513.985291 
	C310.778839,519.829651 318.540466,524.277405 327.349426,520.427246 
	C332.967560,517.971680 338.355225,514.151611 342.728638,509.816010 
	C382.602631,470.287048 422.230804,430.510132 461.931061,390.805908 
	C478.659088,374.076233 495.423126,357.382385 512.101440,340.603302 
	C520.857422,331.794464 523.336426,321.111633 518.218567,310.994385 
	C515.952271,306.514191 512.305176,302.566315 508.707458,298.951508 
	C472.156219,262.226471 435.485687,225.620117 398.848480,188.980667 
	C379.410156,169.541199 360.027222,150.045975 340.513184,130.682846 
	C327.810730,118.078621 313.334442,118.211838 300.538452,130.828217 
	C297.098114,134.220245 293.793671,137.750885 290.330048,141.118362 
	C282.241272,148.982620 274.093719,156.786453 265.884857,164.696854 
	C271.493927,170.368225 276.278687,175.147522 280.998108,179.990494 
	C290.010742,189.239090 299.025269,198.486526 307.949799,207.819763 
	C310.222992,210.197021 312.430206,211.065170 315.887604,210.336319 
	C334.678619,206.374969 353.379333,220.422165 351.802429,239.431427 
	C350.943176,249.789917 355.259338,254.979752 361.437866,260.723358 
	C363.023285,262.197174 364.536896,263.750824 366.043121,265.306885 
	C374.703522,274.253632 383.280579,283.283417 392.091003,292.079620 
	C393.236633,293.223450 395.536591,293.473419 397.347809,293.641205 
	C403.981812,294.255829 411.194702,293.178345 417.172119,295.434113 
	C432.537811,301.232849 439.279816,318.940643 433.273010,334.507904 
	C427.649567,349.081696 410.702454,357.120514 395.903351,352.234192 
	C380.052277,347.000488 371.185913,330.779907 375.786407,314.930664 
	C376.704712,311.766937 376.201904,309.797455 373.860962,307.557312 
	C361.975708,296.183594 350.256775,284.636261 338.427338,273.203796 
	C337.536469,272.342834 336.237549,271.904083 334.920258,270.909210 
	C334.600250,271.953735 334.280273,272.998291 333.546387,274.745087 
	C333.364624,276.547119 333.039246,278.347839 333.022522,280.151398 
	C332.744843,310.184601 332.491119,340.218109 332.329224,370.252075 
	C332.324371,371.153595 333.371307,372.060822 333.954010,373.778595 
	C334.422394,375.475128 334.890808,377.171631 335.990662,379.072296 
	C350.756805,386.908417 355.423920,403.356506 350.507324,416.886536 
	C345.613617,430.353546 331.425873,438.566681 314.677460,435.159637 
	C311.394867,433.809509 308.112274,432.459412 304.936157,431.087799 
	C304.936157,431.087799 304.955170,431.194763 304.675690,430.609344 
	C303.974701,430.148438 303.273712,429.687531 302.827179,429.200745 
	C302.827179,429.200745 302.846863,429.455780 302.534729,428.927032 
	C302.030548,428.610565 301.526398,428.294067 301.000000,428.000000 
	C301.000000,428.000000 301.016266,427.973389 300.725708,427.606201 
	C300.515900,427.373260 300.284760,427.163910 299.998779,426.999695 
	C299.998779,426.999695 300.027496,426.971191 299.953705,426.261963 
	C298.797852,424.938843 297.641968,423.615692 296.601837,422.291077 
	C296.601837,422.291077 296.591949,422.406372 296.655365,421.616486 
	C295.747742,418.634613 294.139893,415.667694 294.075806,412.667816 
	C293.934875,406.070984 294.574097,399.457489 294.944214,392.959045 
	C294.944214,392.959045 294.835327,393.006989 295.280884,392.585419 
	C295.508331,392.026123 295.735748,391.466827 295.988464,390.989197 
	C295.988464,390.989197 295.906708,391.014160 296.306030,390.624329 
	C296.508484,390.312195 296.710907,390.000092 296.927460,389.944855 
	C296.927460,389.944855 296.670441,389.956848 297.099579,389.555481 
z"/>
<path fill="#FFFEFE" opacity="1.000000" stroke="none" 
	d="
M1.000000,347.468658 
	C1.998629,353.295166 3.080970,359.578339 3.982841,365.887329 
	C12.319590,424.206604 34.903229,476.374817 71.958183,522.142273 
	C115.162804,575.505249 170.069107,611.315247 236.138809,629.776428 
	C249.209274,633.428650 262.756714,635.374390 276.085144,638.102417 
	C279.615845,638.825073 283.150116,639.530151 286.841370,640.621643 
	C191.738602,641.000000 96.477196,641.000000 1.000000,641.000000 
	C1.000000,543.312561 1.000000,445.624939 1.000000,347.468658 
z"/>
<path fill="#FFFEFE" opacity="1.000000" stroke="none" 
	d="
M641.000000,286.531342 
	C640.307251,285.661407 639.153748,284.377045 638.988892,282.976318 
	C634.370239,243.746582 622.805969,206.679291 604.373291,171.771530 
	C584.955505,134.998184 559.390686,103.106697 527.576660,76.317688 
	C488.478394,43.395065 444.014343,20.968727 394.254669,9.273069 
	C383.276672,6.692774 372.034485,5.242301 360.926880,3.201239 
	C359.344025,2.910378 357.834656,2.219696 356.145630,1.357029 
	C450.927155,1.000000 545.854309,1.000000 641.000000,1.000000 
	C641.000000,96.020782 641.000000,191.041733 641.000000,286.531342 
z"/>
<path fill="#FFFEFE" opacity="1.000000" stroke="none" 
	d="
M17.068192,219.027084 
	C17.020691,219.481689 16.973190,219.936279 16.601025,220.883728 
	C16.177927,221.867462 16.079494,222.358368 15.981062,222.849274 
	C15.978506,223.052582 15.975950,223.255890 15.675979,223.872345 
	C15.164658,224.516068 15.063662,224.788513 15.075574,225.102844 
	C15.075574,225.102844 15.040012,225.043045 14.839632,225.225922 
	C14.437367,226.602936 14.235483,227.797073 14.033600,228.991196 
	C13.973551,229.437836 13.913502,229.884491 13.395554,230.752380 
	C12.266784,234.107361 11.595911,237.041092 10.925039,239.974838 
	C10.922262,240.421066 10.919485,240.867310 10.485312,241.804306 
	C9.745892,243.930740 9.437867,245.566422 9.129843,247.202087 
	C9.111737,247.603577 9.093634,248.005051 8.716078,248.799011 
	C8.230813,250.125946 8.105001,251.060410 7.979190,251.994873 
	C7.964900,252.449707 7.950609,252.904541 7.646631,253.868744 
	C7.301353,254.704605 7.245761,255.031097 7.190170,255.357590 
	C7.175657,255.729965 7.161144,256.102356 6.732989,256.899597 
	C3.560802,262.939972 2.307586,268.760010 3.922449,274.969635 
	C3.886278,275.754517 3.850106,276.539368 3.462185,277.915253 
	C2.735751,279.641327 2.361068,280.776367 1.986383,281.911438 
	C1.884557,282.856415 1.782733,283.801392 1.340455,284.873169 
	C1.000000,190.405762 1.000000,95.811523 1.000000,1.000000 
	C96.687454,1.000000 192.375061,1.000000 288.531342,1.000005 
	C287.866058,1.679555 286.778687,2.854891 285.591400,2.966408 
	C252.652023,6.060297 221.263794,14.975015 191.112656,28.331738 
	C146.226730,48.215847 107.701935,76.855492 76.428062,114.643234 
	C64.278160,129.323807 54.266563,145.774078 42.740021,161.784973 
	C41.118298,164.408539 40.037460,166.665344 38.956619,168.922150 
	C38.733391,169.472504 38.510166,170.022873 37.886143,170.961319 
	C37.375263,171.666794 37.265186,171.984192 37.155106,172.301575 
	C37.155106,172.301575 37.109177,172.681061 36.678467,172.957703 
	C35.874233,174.223801 35.500706,175.213257 35.127178,176.202713 
	C35.127182,176.202713 35.079613,176.624481 34.627319,176.821136 
	C33.503712,178.752701 32.832394,180.487640 32.161072,182.222565 
	C32.161072,182.222565 32.071125,182.671066 31.747669,183.000336 
	C31.206837,183.582855 31.107571,183.876114 31.126417,184.209381 
	C31.126417,184.209381 31.097927,184.627777 30.636032,184.855316 
	C29.139894,187.748260 28.105652,190.413681 27.071413,193.079102 
	C27.071415,193.079102 27.000031,193.029556 26.712627,193.184464 
	C25.974669,194.914200 25.524115,196.489044 25.073561,198.063873 
	C25.073561,198.063873 25.037304,198.557404 24.589024,198.863129 
	C21.783226,205.788269 19.425711,212.407684 17.068192,219.027084 
z"/>
<path fill="#FFFEFE" opacity="1.000000" stroke="none" 
	d="
M363.915253,638.695984 
	C365.326385,638.460449 366.737549,638.224854 368.806030,638.171875 
	C370.323181,637.966980 371.183014,637.579468 372.042847,637.192017 
	C372.782013,637.116333 373.521210,637.040771 374.860474,637.217957 
	C381.974121,638.702332 387.581299,636.254822 393.025055,633.143799 
	C393.686005,633.021973 394.346985,632.900146 395.591675,632.789062 
	C396.510712,632.716980 396.779510,632.535583 396.981812,632.255554 
	C398.416290,631.843811 399.850769,631.432129 401.952576,631.236938 
	C405.743225,630.396484 408.866516,629.339539 411.989807,628.282532 
	C412.171448,628.202271 412.353088,628.121948 413.216675,628.087280 
	C417.619293,628.997864 420.829926,628.084595 424.241608,626.273560 
	C427.984772,624.286560 432.348267,623.504395 436.289001,621.836975 
	C438.078949,621.079590 439.501678,619.454407 441.091003,618.222900 
	C441.091003,618.222900 441.180786,618.067566 441.351318,618.125610 
	C441.521881,618.183655 441.780365,617.964172 441.780365,617.964172 
	C442.253479,617.692017 442.726562,617.419800 443.879639,617.251831 
	C448.843231,615.975891 453.169281,614.708191 457.373535,613.118164 
	C458.185699,612.811035 458.521179,611.243347 459.076538,610.257080 
	C459.076508,610.257080 459.160828,610.092102 459.619873,610.116943 
	C463.731232,608.156738 467.383514,606.171753 471.035797,604.186768 
	C471.035797,604.186768 471.338928,603.924133 471.920074,603.907349 
	C474.353027,602.707214 476.204834,601.523865 478.056641,600.340515 
	C504.386719,585.085510 528.548584,566.992737 549.799744,545.154419 
	C588.879456,504.995117 616.031250,457.905487 630.347351,403.738586 
	C634.400574,388.402771 636.158020,372.461243 639.019409,356.806824 
	C639.184875,355.901703 639.812439,355.081024 640.612427,354.110535 
	C641.000000,449.593719 641.000000,545.187439 641.000000,641.000000 
	C545.645874,641.000000 450.291595,641.000000 354.468658,641.000000 
	C356.689209,640.389282 359.378448,639.778625 362.627563,639.073181 
	C363.469208,638.985107 363.711792,638.890991 363.915253,638.695984 
z"/>
<path fill="#FFFEFD" opacity="1.000000" stroke="none" 
	d="
M335.128296,271.269104 
	C336.237549,271.904083 337.536469,272.342834 338.427338,273.203796 
	C350.256775,284.636261 361.975708,296.183594 373.860962,307.557312 
	C376.201904,309.797455 376.704712,311.766937 375.786407,314.930664 
	C371.185913,330.779907 380.052277,347.000488 395.903351,352.234192 
	C410.702454,357.120514 427.649567,349.081696 433.273010,334.507904 
	C439.279816,318.940643 432.537811,301.232849 417.172119,295.434113 
	C411.194702,293.178345 403.981812,294.255829 397.347809,293.641205 
	C395.536591,293.473419 393.236633,293.223450 392.091003,292.079620 
	C383.280579,283.283417 374.703522,274.253632 366.043121,265.306885 
	C364.536896,263.750824 363.023285,262.197174 361.437866,260.723358 
	C355.259338,254.979752 350.943176,249.789917 351.802429,239.431427 
	C353.379333,220.422165 334.678619,206.374969 315.887604,210.336319 
	C312.430206,211.065170 310.222992,210.197021 307.949799,207.819763 
	C299.025269,198.486526 290.010742,189.239090 280.998108,179.990494 
	C276.278687,175.147522 271.493927,170.368225 265.884857,164.696854 
	C274.093719,156.786453 282.241272,148.982620 290.330048,141.118362 
	C293.793671,137.750885 297.098114,134.220245 300.538452,130.828217 
	C313.334442,118.211838 327.810730,118.078621 340.513184,130.682846 
	C360.027222,150.045975 379.410156,169.541199 398.848480,188.980667 
	C435.485687,225.620117 472.156219,262.226471 508.707458,298.951508 
	C512.305176,302.566315 515.952271,306.514191 518.218567,310.994385 
	C523.336426,321.111633 520.857422,331.794464 512.101440,340.603302 
	C495.423126,357.382385 478.659088,374.076233 461.931061,390.805908 
	C422.230804,430.510132 382.602631,470.287048 342.728638,509.816010 
	C338.355225,514.151611 332.967560,517.971680 327.349426,520.427246 
	C318.540466,524.277405 310.778839,519.829651 304.561188,513.985291 
	C291.820496,502.009430 279.607391,489.470184 267.235565,477.104370 
	C228.231400,438.119263 189.254913,399.106445 150.266159,360.105896 
	C143.669693,353.507446 136.977158,347.002289 130.483719,340.304047 
	C118.143326,327.574432 118.201225,313.258240 130.671112,300.703247 
	C147.342270,283.918243 164.109619,267.228821 180.842880,250.505524 
	C202.055634,229.305405 223.273697,208.110596 244.497131,186.921173 
	C245.768921,185.651413 247.108398,184.449417 248.726929,182.923004 
	C263.257568,197.515060 277.661041,211.841095 291.802094,226.421631 
	C293.041687,227.699722 293.267975,230.829086 292.763855,232.789764 
	C289.325134,246.164062 293.759094,256.557068 304.767395,265.238281 
	C309.781189,267.154999 310.642303,270.355499 310.613464,274.869598 
	C310.412872,306.271057 310.408173,337.675110 310.611176,369.076538 
	C310.646515,374.542450 310.428925,379.259430 304.508240,381.511536 
	C304.508240,381.511536 304.764099,381.581512 304.339111,381.643494 
	C302.491882,383.040222 301.069641,384.374939 299.647369,385.709656 
	C299.647369,385.709656 299.766479,385.785492 299.466339,385.853149 
	C298.634857,386.712311 298.103485,387.503815 297.572144,388.295349 
	C297.572144,388.295349 297.520599,388.526550 297.320343,388.652191 
	C296.970215,389.170837 296.820312,389.563843 296.670410,389.956848 
	C296.670441,389.956848 296.927460,389.944855 296.630402,389.923859 
	C296.191132,390.273285 296.048920,390.643738 295.906708,391.014160 
	C295.906708,391.014160 295.988464,390.989197 295.707275,391.117310 
	C295.229156,391.832642 295.032257,392.419800 294.835327,393.006989 
	C294.835327,393.006989 294.944214,392.959045 294.634155,393.137482 
	C290.318054,403.383972 289.968353,413.166992 296.591949,422.406372 
	C296.591949,422.406372 296.601837,422.291077 296.620667,422.622375 
	C297.768860,424.292847 298.898163,425.632019 300.027496,426.971191 
	C300.027496,426.971191 299.998779,426.999695 300.073486,427.239441 
	C300.437561,427.643921 300.726929,427.808655 301.016266,427.973389 
	C301.016266,427.973389 301.000000,428.000000 301.133240,428.270172 
	C301.793243,428.845490 302.320068,429.150635 302.846863,429.455780 
	C302.846863,429.455780 302.827179,429.200745 302.838013,429.507141 
	C303.550934,430.273987 304.253052,430.734375 304.955170,431.194763 
	C304.955170,431.194763 304.936157,431.087799 305.060059,431.397949 
	C308.451355,433.049713 311.718750,434.391327 314.986145,435.732910 
	C331.425873,438.566681 345.613617,430.353546 350.507324,416.886536 
	C355.423920,403.356506 350.756805,386.908417 335.672913,378.512390 
	C335.325470,374.629028 335.274658,371.305634 335.269348,367.982147 
	C335.217987,335.744476 335.174225,303.506775 335.128296,271.269104 
z"/>
<path fill="#D55131" opacity="1.000000" stroke="none" 
	d="
M304.921265,381.566040 
	C310.428925,379.259430 310.646515,374.542450 310.611176,369.076538 
	C310.408173,337.675110 310.412872,306.271057 310.613464,274.869598 
	C310.642303,270.355499 309.781189,267.154999 305.094727,265.302185 
	C311.398468,265.177979 311.991974,265.738251 311.994446,272.237518 
	C312.007477,306.207001 311.901031,340.177094 312.099457,374.145386 
	C312.129639,379.307465 310.298676,381.574432 304.921265,381.566040 
z"/>
<path fill="#D24525" opacity="1.000000" stroke="none" 
	d="
M335.024292,271.089172 
	C335.174225,303.506775 335.217987,335.744476 335.269348,367.982147 
	C335.274658,371.305634 335.325470,374.629028 335.357178,378.410339 
	C334.890808,377.171631 334.422394,375.475128 333.958252,372.907654 
	C333.961761,339.372101 333.961029,306.707458 333.960266,274.042816 
	C334.280273,272.998291 334.600250,271.953735 335.024292,271.089172 
z"/>
<path fill="#FE4E29" opacity="1.000000" stroke="none" 
	d="
M333.753326,274.393951 
	C333.961029,306.707458 333.961761,339.372101 333.945190,372.501068 
	C333.371307,372.060822 332.324371,371.153595 332.329224,370.252075 
	C332.491119,340.218109 332.744843,310.184601 333.022522,280.151398 
	C333.039246,278.347839 333.364624,276.547119 333.753326,274.393951 
z"/>
<path fill="#FDE8D8" opacity="1.000000" stroke="none" 
	d="
M440.718384,618.239136 
	C439.501678,619.454407 438.078949,621.079590 436.289001,621.836975 
	C432.348267,623.504395 427.984772,624.286560 424.241608,626.273560 
	C420.829926,628.084595 417.619293,628.997864 413.514374,628.075562 
	C422.201965,624.763916 431.273865,621.509644 440.718384,618.239136 
z"/>
<path fill="#D55131" opacity="1.000000" stroke="none" 
	d="
M296.623657,422.011414 
	C289.968353,413.166992 290.318054,403.383972 294.609497,393.083374 
	C294.574097,399.457489 293.934875,406.070984 294.075806,412.667816 
	C294.139893,415.667694 295.747742,418.634613 296.623657,422.011414 
z"/>
<path fill="#FEE8D8" opacity="1.000000" stroke="none" 
	d="
M17.327599,218.787155 
	C19.425711,212.407684 21.783226,205.788269 24.465174,199.077332 
	C22.388739,205.506287 19.987869,212.026749 17.327599,218.787155 
z"/>
<path fill="#FDE8D8" opacity="1.000000" stroke="none" 
	d="
M392.621704,633.121033 
	C387.581299,636.254822 381.974121,638.702332 375.231995,637.247009 
	C380.741730,635.714905 386.480042,634.406616 392.621704,633.121033 
z"/>
<path fill="#FEE8D8" opacity="1.000000" stroke="none" 
	d="
M4.072553,274.611633 
	C2.307586,268.760010 3.560802,262.939972 6.635148,257.163239 
	C6.041518,262.752563 5.132087,268.503113 4.072553,274.611633 
z"/>
<path fill="#FDE8D8" opacity="1.000000" stroke="none" 
	d="
M458.721741,610.302795 
	C458.521179,611.243347 458.185699,612.811035 457.373535,613.118164 
	C453.169281,614.708191 448.843231,615.975891 444.285156,617.179138 
	C448.796082,614.784424 453.581512,612.566467 458.721741,610.302795 
z"/>
<path fill="#FDE8D8" opacity="1.000000" stroke="none" 
	d="
M470.681396,604.224121 
	C467.383514,606.171753 463.731232,608.156738 459.711182,610.132629 
	C463.004639,608.169495 466.665833,606.215454 470.681396,604.224121 
z"/>
<path fill="#FEE8D8" opacity="1.000000" stroke="none" 
	d="
M11.118444,239.671875 
	C11.595911,237.041092 12.266784,234.107361 13.246384,231.057220 
	C12.807358,233.750183 12.059604,236.559540 11.118444,239.671875 
z"/>
<path fill="#FDE8D8" opacity="1.000000" stroke="none" 
	d="
M411.612488,628.281616 
	C408.866516,629.339539 405.743225,630.396484 402.326630,631.272766 
	C405.100616,630.154907 408.167908,629.217773 411.612488,628.281616 
z"/>
<path fill="#D55131" opacity="1.000000" stroke="none" 
	d="
M314.831787,435.446289 
	C311.718750,434.391327 308.451355,433.049713 305.006836,431.408691 
	C308.112274,432.459412 311.394867,433.809509 314.831787,435.446289 
z"/>
<path fill="#FEE8D8" opacity="1.000000" stroke="none" 
	d="
M27.346813,192.876740 
	C28.105652,190.413681 29.139894,187.748260 30.531008,185.036789 
	C29.799326,187.551941 28.710772,190.113159 27.346813,192.876740 
z"/>
<path fill="#FEE8D8" opacity="1.000000" stroke="none" 
	d="
M39.232906,168.734665 
	C40.037460,166.665344 41.118298,164.408539 42.530403,162.058441 
	C41.744175,164.159164 40.626682,166.353180 39.232906,168.734665 
z"/>
<path fill="#FDE8D8" opacity="1.000000" stroke="none" 
	d="
M477.735718,600.418945 
	C476.204834,601.523865 474.353027,602.707214 472.116394,603.866333 
	C473.625946,602.727234 475.520355,601.612305 477.735718,600.418945 
z"/>
<path fill="#FEE8D8" opacity="1.000000" stroke="none" 
	d="
M32.431412,182.029846 
	C32.832394,180.487640 33.503712,178.752701 34.497307,176.988861 
	C34.113636,178.585663 33.407692,180.211411 32.431412,182.029846 
z"/>
<path fill="#D55131" opacity="1.000000" stroke="none" 
	d="
M300.017151,385.707123 
	C301.069641,384.374939 302.491882,383.040222 304.220093,381.585022 
	C303.146332,382.877899 301.766602,384.291229 300.017151,385.707123 
z"/>
<path fill="#D55131" opacity="1.000000" stroke="none" 
	d="
M299.990601,426.616577 
	C298.898163,425.632019 297.768860,424.292847 296.562805,422.623108 
	C297.641968,423.615692 298.797852,424.938843 299.990601,426.616577 
z"/>
<path fill="#FEE8D8" opacity="1.000000" stroke="none" 
	d="
M25.319738,197.825928 
	C25.524115,196.489044 25.974669,194.914200 26.754120,193.196716 
	C26.577314,194.565369 26.071615,196.076660 25.319738,197.825928 
z"/>
<path fill="#FEE8D8" opacity="1.000000" stroke="none" 
	d="
M9.347158,246.931763 
	C9.437867,245.566422 9.745892,243.930740 10.359745,242.115875 
	C10.298541,243.511581 9.931508,245.086502 9.347158,246.931763 
z"/>
<path fill="#FEE8D8" opacity="1.000000" stroke="none" 
	d="
M2.140463,281.645569 
	C2.361068,280.776367 2.735751,279.641327 3.320209,278.284332 
	C3.118168,279.168152 2.706355,280.273926 2.140463,281.645569 
z"/>
<path fill="#D55131" opacity="1.000000" stroke="none" 
	d="
M297.830322,388.468994 
	C298.103485,387.503815 298.634857,386.712311 299.428711,385.793396 
	C299.156982,386.658203 298.622742,387.650421 297.830322,388.468994 
z"/>
<path fill="#FDE8D8" opacity="1.000000" stroke="none" 
	d="
M371.721680,637.133057 
	C371.183014,637.579468 370.323181,637.966980 369.238953,638.192383 
	C369.809875,637.711609 370.605164,637.392883 371.721680,637.133057 
z"/>
<path fill="#FEE8D8" opacity="1.000000" stroke="none" 
	d="
M14.274105,228.733398 
	C14.235483,227.797073 14.437367,226.602936 14.874414,225.226730 
	C14.911256,226.188293 14.712934,227.331940 14.274105,228.733398 
z"/>
<path fill="#FEE8D8" opacity="1.000000" stroke="none" 
	d="
M8.177932,251.734985 
	C8.105001,251.060410 8.230813,250.125946 8.619352,249.086090 
	C8.713612,249.812149 8.545143,250.643616 8.177932,251.734985 
z"/>
<path fill="#FEE8D8" opacity="1.000000" stroke="none" 
	d="
M35.375648,176.009644 
	C35.500706,175.213257 35.874233,174.223801 36.555374,173.103912 
	C36.450031,173.921173 36.037075,174.868866 35.375648,176.009644 
z"/>
<path fill="#D55131" opacity="1.000000" stroke="none" 
	d="
M304.815430,430.902039 
	C304.253052,430.734375 303.550934,430.273987 302.710754,429.520081 
	C303.273712,429.687531 303.974701,430.148438 304.815430,430.902039 
z"/>
<path fill="#D55131" opacity="1.000000" stroke="none" 
	d="
M302.690796,429.191406 
	C302.320068,429.150635 301.793243,428.845490 301.144348,428.258972 
	C301.526398,428.294067 302.030548,428.610565 302.690796,429.191406 
z"/>
<path fill="#D55131" opacity="1.000000" stroke="none" 
	d="
M295.058105,392.796204 
	C295.032257,392.419800 295.229156,391.832642 295.694641,391.076477 
	C295.735748,391.466827 295.508331,392.026123 295.058105,392.796204 
z"/>
<path fill="#FEE8D8" opacity="1.000000" stroke="none" 
	d="
M16.162907,222.669159 
	C16.079494,222.358368 16.177927,221.867462 16.465942,221.199707 
	C16.551931,221.511581 16.448341,222.000320 16.162907,222.669159 
z"/>
<path fill="#FEE8D8" opacity="1.000000" stroke="none" 
	d="
M37.376213,172.154388 
	C37.265186,171.984192 37.375263,171.666794 37.676666,171.179108 
	C37.777763,171.341599 37.687542,171.674393 37.376213,172.154388 
z"/>
<path fill="#D55131" opacity="1.000000" stroke="none" 
	d="
M300.870972,427.789795 
	C300.726929,427.808655 300.437561,427.643921 300.090271,427.228638 
	C300.284760,427.163910 300.515900,427.373260 300.870972,427.789795 
z"/>
<path fill="#FEE8D8" opacity="1.000000" stroke="none" 
	d="
M7.388045,255.185425 
	C7.245761,255.031097 7.301353,254.704605 7.525405,254.189392 
	C7.657885,254.338181 7.621902,254.675720 7.388045,255.185425 
z"/>
<path fill="#FEE8D8" opacity="1.000000" stroke="none" 
	d="
M15.297173,225.003723 
	C15.063662,224.788513 15.164658,224.516068 15.556700,224.153046 
	C15.879497,224.368210 15.807474,224.662872 15.297173,225.003723 
z"/>
<path fill="#FDE8D8" opacity="1.000000" stroke="none" 
	d="
M441.696045,617.881348 
	C441.780365,617.964172 441.521881,618.183655 441.438171,618.148132 
	C441.354462,618.112610 441.611694,617.798462 441.696045,617.881348 
z"/>
<path fill="#D55131" opacity="1.000000" stroke="none" 
	d="
M296.106384,390.819244 
	C296.048920,390.643738 296.191132,390.273285 296.623352,389.795410 
	C296.710907,390.000092 296.508484,390.312195 296.106384,390.819244 
z"/>
<path fill="#FDE8D8" opacity="1.000000" stroke="none" 
	d="
M396.727417,632.238403 
	C396.779510,632.535583 396.510712,632.716980 395.928528,632.805664 
	C395.945465,632.614807 396.209259,632.418030 396.727417,632.238403 
z"/>
<path fill="#FEE8D8" opacity="1.000000" stroke="none" 
	d="
M31.343365,184.088181 
	C31.107571,183.876114 31.206837,183.582855 31.608791,183.182037 
	C31.877066,183.385666 31.799379,183.696487 31.343365,184.088181 
z"/>
<path fill="#D55131" opacity="1.000000" stroke="none" 
	d="
M296.885010,389.756165 
	C296.820312,389.563843 296.970215,389.170837 297.435547,388.679688 
	C297.533844,388.906189 297.316711,389.230835 296.885010,389.756165 
z"/>
<path fill="#FDE8D8" opacity="1.000000" stroke="none" 
	d="
M363.722534,638.605591 
	C363.711792,638.890991 363.469208,638.985107 362.992859,638.932617 
	C362.971802,638.624329 363.215637,638.500488 363.722534,638.605591 
z"/>
</svg>